<?xml version="1.0" encoding="UTF-8" standalone="no"?>
<!-- Created with Inkscape (http://www.inkscape.org/) -->

<svg
   width="394"
   height="114"
   viewBox="0 0 104.2458 30.162501"
   version="1.1"
   id="svg5"
   xml:space="preserve"
   xmlns="http://www.w3.org/2000/svg"
   xmlns:svg="http://www.w3.org/2000/svg"><defs
     id="defs2" /><path
     id="path2-6-8"
     style="fill:#f0f6fc;fill-opacity:1;stroke-width:0.0160892"
     d="m 6.31788,4.5061849 c -0.567948,0 -1.0299114,0.4614455 -1.0299114,1.0293945 V 22.297347 c 0,0.567949 0.4619634,1.029911 1.0299114,1.029911 h 12.056112 0.02429 v -5.16e-4 c 0.549246,-0.01286 0.993338,-0.457662 1.005106,-1.007174 h 5.17e-4 V 22.297347 9.108488 c 0,-0.273516 -0.109219,-0.5345572 -0.301273,-0.7286377 -0.898395,-0.907874 -3.572392,-3.5729086 -3.572392,-3.5729086 0,0 -0.455638,-0.3007568 -0.729155,-0.3007568 z m 0,0.7720459 h 8.394836 v 2.8747599 c 0,0.5596832 0.255094,1.043864 1.043865,1.043864 h 2.87476 V 22.297347 c 0,0.141585 -0.115765,0.257349 -0.257349,0.257349 H 6.31788 c -0.141584,0 -0.2578654,-0.115764 -0.2578654,-0.257349 V 5.5355794 c 0,-0.141586 0.1162814,-0.2573486 0.2578654,-0.2573486 z" /><path
     d="m 32.722433,14.13676 c 0.185271,-0.185271 0.185271,-0.486151 0,-0.671421 l -2.371465,-2.371466 c -0.185271,-0.185271 -0.486151,-0.185271 -0.671421,0 -0.185271,0.18527 -0.185271,0.486151 0,0.671421 l 1.563685,1.562204 h -4.547286 c -0.262343,0 -0.474293,0.211949 -0.474293,0.474293 0,0.262343 0.21195,0.474293 0.474293,0.474293 h 4.545803 l -1.56072,1.562202 c -0.185271,0.185272 -0.185271,0.486151 0,0.671422 0.18527,0.18527 0.48615,0.18527 0.671421,0 l 2.371465,-2.371466 z"
     id="path1574"
     style="fill:#f0f6fc;fill-opacity:1;stroke:none;stroke-width:0.0148216;stroke-opacity:1" /><g
     id="g1772"
     transform="translate(3.6143553,1.7889325)"
     style="fill:#f0f6fc;fill-opacity:1"><path
       id="path753"
       style="fill:#f0f6fc;fill-opacity:1;stroke-width:0.0352114"
       d="m 38.574357,5.3015908 c -1.242957,4.7e-6 -1.724442,0.4809664 -1.724442,1.7239258 v 9.9740684 c 0,1.24296 0.481485,1.724442 1.724442,1.724442 H 49.875993 V 17.562858 H 38.574357 c -0.309858,0 -0.563273,-0.253412 -0.563273,-0.563273 V 8.6135333 c 0,-0.3098601 0.253415,-0.5632731 0.563273,-0.5632731 h 15.137578 c 0.404969,0 0.579473,0.2387796 0.563273,0.5627564 v 4.8012574 h 1.160653 V 7.0255166 C 55.390044,5.6509995 55.08645,5.3474075 53.711935,5.3015908 Z m 0.520382,0.9828857 c 0.276119,1.596e-4 0.499837,0.2241094 0.499711,0.5002279 -1.59e-4,0.2759167 -0.223794,0.4995517 -0.499711,0.4997111 C 38.81862,7.2845415 38.594671,7.060823 38.594511,6.7847044 38.594385,6.508384 38.818419,6.2843505 39.094739,6.2844765 Z m 1.444873,0 c 0.276119,1.596e-4 0.499837,0.2241094 0.499711,0.5002279 -1.59e-4,0.2759167 -0.223794,0.4995517 -0.499711,0.4997111 -0.276119,1.26e-4 -0.500068,-0.2235925 -0.500228,-0.4997111 -1.26e-4,-0.2763204 0.223908,-0.5003539 0.500228,-0.5002279 z m 1.434538,0 c 0.27632,-1.26e-4 0.500354,0.2239075 0.500228,0.5002279 C 42.474218,7.060823 42.250269,7.2845415 41.97415,7.2844155 41.698233,7.2842561 41.474598,7.0606211 41.474439,6.7847044 41.474313,6.5085859 41.698031,6.2846361 41.97415,6.2844765 Z" /><path
       d="m 40.399307,10.759191 c -0.154556,-0.154555 -0.154556,-0.404315 0,-0.558871 0.154554,-0.154555 0.405552,-0.154555 0.560107,0 l 2.373963,2.373964 c 0.154555,0.154554 0.154555,0.405552 0,0.560106 l -2.373963,2.373965 c -0.154555,0.154554 -0.405553,0.154554 -0.560107,0 -0.154556,-0.154556 -0.154556,-0.405553 0,-0.560109 l 2.093291,-2.094527 z m 3.049058,4.072831 h 3.560945 c 0.218851,0 0.395662,0.17681 0.395662,0.39566 0,0.21885 -0.176811,0.395661 -0.395662,0.395661 h -3.560945 c -0.21885,0 -0.39566,-0.176811 -0.39566,-0.395661 0,-0.21885 0.17681,-0.39566 0.39566,-0.39566 z"
       id="path1213"
       style="fill:#f0f6fc;fill-opacity:1;stroke-width:0.0123644" /></g><path
     d="m 79.535169,5.1729297 h 2.624878 c 0.161321,0 0.291654,0.1303322 0.291654,0.2916531 0,0.1613209 -0.130333,0.2916538 -0.291654,0.2916538 h -2.624878 c -0.161322,0 -0.291654,-0.1303329 -0.291654,-0.2916538 0,-0.1613209 0.130332,-0.2916531 0.291654,-0.2916531 z"
     id="path1213-6"
     style="fill:#f0f6fc;fill-opacity:1;stroke-width:0.00911422" /><path
     d="m 79.535169,7.3034873 h 5.607658 c 0.161321,0 0.291654,0.1303322 0.291654,0.2916531 0,0.1613213 -0.130333,0.2916533 -0.291654,0.2916533 h -5.607658 c -0.161322,0 -0.291654,-0.130332 -0.291654,-0.2916533 0,-0.1613209 0.130332,-0.2916531 0.291654,-0.2916531 z"
     id="path1213-6-1"
     style="fill:#f0f6fc;fill-opacity:1;stroke-width:0.00911422" /><path
     d="m 79.535169,9.4230917 h 5.607658 c 0.161321,0 0.291654,0.130332 0.291654,0.291653 0,0.161321 -0.130333,0.2916543 -0.291654,0.2916543 h -5.607658 c -0.161322,0 -0.291654,-0.1303333 -0.291654,-0.2916543 0,-0.161321 0.130332,-0.291653 0.291654,-0.291653 z"
     id="path1213-6-1-8"
     style="fill:#f0f6fc;fill-opacity:1;stroke-width:0.00911422" /><path
     d="m 73.088463,14.13676 c 0.185271,-0.185271 0.185271,-0.486151 0,-0.671421 l -2.371465,-2.371466 c -0.185271,-0.185271 -0.486151,-0.185271 -0.671421,0 -0.185271,0.18527 -0.185271,0.486151 0,0.671421 l 1.563685,1.562204 h -4.547286 c -0.262343,0 -0.474293,0.211949 -0.474293,0.474293 0,0.262343 0.21195,0.474293 0.474293,0.474293 h 4.545803 l -1.56072,1.562202 c -0.185271,0.185272 -0.185271,0.486151 0,0.671422 0.18527,0.18527 0.48615,0.18527 0.671421,0 l 2.371465,-2.371466 z"
     id="path1574-2"
     style="fill:#f0f6fc;fill-opacity:1;stroke-width:0.0148216" /><g
     style="fill:none;fill-opacity:1"
     id="g3215"
     transform="matrix(8.8194444,0,0,8.8194444,-146.36271,-126.33888)"><path
       style="fill:#f0f6fc;stroke-linecap:round;stroke-linejoin:round"
       d="m 17.894531,15.685547 c -0.06538,3e-6 -0.119137,0.05376 -0.11914,0.119141 v 0.08008 c 0,0.01192 -0.0041,0.03477 -0.01563,0.05078 -0.01152,0.01601 -0.0278,0.0293 -0.06445,0.0293 a 0.03975077,0.03975077 0 0 0 0,0.07813 c 0.01192,0 0.03478,0.0061 0.05078,0.01758 0.01601,0.01152 0.0293,0.02585 0.0293,0.0625 v 0.08008 c 3e-6,0.06538 0.05376,0.119138 0.11914,0.119141 h 0.01953 a 0.0397468,0.0397468 0 0 0 0.03906,-0.04102 0.0397468,0.0397468 0 0 0 -0.03906,-0.03906 h -0.01953 c -0.02242,-1e-6 -0.03906,-0.01664 -0.03906,-0.03906 v -0.08008 c 0,-0.05874 -0.02882,-0.102705 -0.0625,-0.126953 0.0081,-0.0071 0.02544,-0.0056 0.03125,-0.01367 0.02425,-0.03368 0.03125,-0.06983 0.03125,-0.09766 v -0.08008 c 10e-7,-0.02242 0.01664,-0.03906 0.03906,-0.03906 h 0.01953 a 0.0397468,0.0397468 0 0 0 0.03906,-0.03906 0.0397468,0.0397468 0 0 0 -0.03906,-0.04102 z m 0.21875,0 a 0.0397468,0.0397468 0 0 0 -0.03906,0.04102 0.0397468,0.0397468 0 0 0 0.03906,0.03906 h 0.01953 c 0.02242,10e-7 0.03906,0.01664 0.03906,0.03906 v 0.08008 c 0,0.02782 0.007,0.06398 0.03125,0.09766 0.0058,0.0081 0.02319,0.0066 0.03125,0.01367 -0.03368,0.02425 -0.0625,0.06822 -0.0625,0.126953 v 0.08008 c -1e-6,0.02242 -0.01664,0.03906 -0.03906,0.03906 h -0.01953 a 0.0397468,0.0397468 0 0 0 -0.03906,0.03906 0.0397468,0.0397468 0 0 0 0.03906,0.04102 h 0.01953 c 0.06538,-3e-6 0.119138,-0.05376 0.119141,-0.119141 v -0.08008 c 0,-0.03665 0.01329,-0.05098 0.0293,-0.0625 0.01601,-0.01152 0.03886,-0.01758 0.05078,-0.01758 a 0.03975077,0.03975077 0 0 0 0,-0.07813 c -0.03665,0 -0.05293,-0.01329 -0.06445,-0.0293 -0.01152,-0.01601 -0.01563,-0.03886 -0.01563,-0.05078 v -0.08008 c -3e-6,-0.06538 -0.05376,-0.119138 -0.119141,-0.119141 z"
       id="path3206" /></g><path
     d="m 79.535469,11.537029 h 2.624878 c 0.161322,0 0.291655,0.130333 0.291655,0.291653 0,0.161321 -0.130333,0.291654 -0.291655,0.291654 h -2.624878 c -0.161321,0 -0.291654,-0.130333 -0.291654,-0.291654 0,-0.16132 0.130333,-0.291653 0.291654,-0.291653 z"
     id="path1213-6-9"
     style="fill:#f0f6fc;fill-opacity:1;stroke-width:0.00911422" /><g
     style="fill:#f0f6fc;fill-opacity:1"
     id="g1"
     transform="matrix(0.22395218,0,0,0.22395218,54.766298,16.270864)"><path
       d="m 19.079,0.24 1.203,0.265 0.973,0.349 0.787,0.4 0.599,0.428 0.453,0.453 0.333,0.452 0.213,0.439 0.131,0.4 0.057,0.344 0.027,0.271 -0.016,0.172 v 7.12 l -0.068,0.839 -0.172,0.735 -0.281,0.615 -0.344,0.505 -0.4,0.411 -0.437,0.333 -0.469,0.256 -0.469,0.187 -0.437,0.136 -0.4,0.088 -0.344,0.057 -0.281,0.027 h -7.964 l -0.916,0.067 -0.787,0.183 -0.667,0.297 -0.547,0.359 -0.443,0.428 -0.36,0.463 -0.265,0.485 -0.199,0.489 -0.135,0.468 -0.093,0.428 -0.053,0.359 -0.025,0.281 v 4.079 H 4.308 L 4.028,23.865 3.652,23.772 3.231,23.616 2.762,23.376 2.283,23.028 1.804,22.548 1.335,21.933 0.908,21.146 0.532,20.173 0.256,19.001 0.069,17.6 0.001,15.96 0.08,14.335 0.293,12.95 0.616,11.789 1.043,10.841 1.523,10.081 2.054,9.497 2.617,9.054 3.174,8.737 3.71,8.524 4.19,8.388 4.617,8.32 4.934,8.309 H 5.147 L 5.231,8.32 H 16.106 V 7.216 H 8.319 L 8.308,3.549 8.283,3.054 8.351,2.601 8.496,2.19 8.72,1.814 9.053,1.471 9.47,1.163 9.974,0.898 10.563,0.653 11.24,0.456 12.016,0.295 12.864,0.164 13.812,0.081 14.839,0.029 15.959,0.002 17.651,0.07 Z m -8.396,2.64 -0.308,0.437 -0.109,0.547 0.109,0.548 0.308,0.452 0.437,0.297 0.547,0.12 0.547,-0.12 L 12.651,4.864 12.959,4.412 13.068,3.864 12.959,3.317 12.651,2.88 12.214,2.588 11.667,2.469 11.12,2.588 Z m 17.453,5.265 0.369,0.084 0.427,0.156 0.469,0.24 0.479,0.359 0.48,0.469 0.468,0.625 0.427,0.785 0.371,0.975 0.281,1.177 0.187,1.385 0.068,1.64 -0.083,1.641 -0.215,1.385 -0.317,1.145 -0.427,0.948 -0.48,0.76 -0.536,0.6 -0.557,0.437 -0.563,0.323 -0.531,0.213 -0.48,0.12 -0.427,0.068 -0.317,0.025 -0.213,-0.015 H 16.052 v 1.093 h 7.787 l 0.016,3.683 0.025,0.479 -0.068,0.453 -0.145,0.411 -0.229,0.385 -0.333,0.333 -0.411,0.324 -0.505,0.265 -0.589,0.229 -0.677,0.197 -0.776,0.172 -0.853,0.12 -0.943,0.093 -1.032,0.052 -1.12,0.016 L 14.507,31.943 13.08,31.755 11.881,31.49 10.908,31.157 10.121,30.756 9.522,30.313 9.069,29.86 8.736,29.408 8.523,28.969 8.387,28.569 8.335,28.236 8.308,27.969 8.319,27.798 v -7.12 l 0.068,-0.855 0.177,-0.724 0.276,-0.609 0.349,-0.511 0.4,-0.421 0.439,-0.323 0.468,-0.267 0.464,-0.187 0.443,-0.136 0.401,-0.077 0.343,-0.052 0.453,-0.043 h 7.787 l 0.921,-0.067 0.787,-0.183 0.667,-0.281 0.547,-0.375 0.439,-0.428 0.359,-0.463 0.271,-0.485 0.199,-0.479 0.135,-0.464 0.095,-0.427 0.052,-0.375 0.025,-0.281 V 8.086 h 2.787 l 0.188,0.011 z m -8.631,19 -0.308,0.443 -0.104,0.548 0.104,0.547 0.308,0.437 0.443,0.307 0.547,0.104 0.547,-0.104 0.437,-0.307 0.308,-0.437 0.109,-0.547 -0.109,-0.548 -0.308,-0.443 -0.437,-0.307 -0.547,-0.104 -0.547,0.104 z"
       id="path1"
       style="fill:#f0f6fc;fill-opacity:1" /></g><path
     style="-inkscape-font-specification:Keraleeyam;fill:#f0f6fc;stroke-width:0.264583"
     d="m 1.7005997,25.205879 q -0.4878252,0 -0.4878252,0.471289 v 0.124023 h 0.5897999 v 0.476801 H 1.2127745 v 2.00091 H 0.70290079 v -2.00091 H 0.28673357 v -0.476801 h 0.41616722 v -0.143315 q 0,-0.449241 0.24253453,-0.702799 0.24253458,-0.253559 0.63389708,-0.253559 0.1819009,0 0.3362411,0.03307 v 0.504361 Q 1.8108427,25.205879 1.7005997,25.205879 Z M 4.08736,28.215513 q -0.3500215,0.129535 -0.7331158,0.129535 -0.6862625,0 -0.9894307,-0.344509 -0.3031681,-0.347266 -0.3031681,-0.945334 0,-0.598068 0.3004121,-0.959114 0.3004121,-0.363801 0.8075297,-0.363801 0.5098738,0 0.7882373,0.333485 0.2783635,0.333485 0.2783635,0.854383 0,0.198437 -0.016536,0.303168 H 2.6073481 q 0,0.518142 0.4960934,0.60358 0.1433158,0.02481 0.2921438,0.02481 0.3555336,0 0.6917747,-0.143316 z M 3.7290703,26.79889 q 0,-0.264583 -0.1570962,-0.416167 -0.1570962,-0.15434 -0.3996308,-0.15434 -0.2397784,0 -0.4023868,0.148828 -0.1626084,0.148828 -0.1626084,0.421679 z M 4.577941,25.859069 q 0.333485,-0.121267 0.6421653,-0.121267 0.5842877,0 0.8598952,0.234266 0.2783635,0.23151 0.2783635,0.774457 v 1.562694 H 5.8319548 l -0.011024,-0.220486 q -0.1681205,0.256315 -0.592556,0.256315 -0.5760195,0 -0.7634326,-0.418923 -0.071658,-0.15434 -0.071658,-0.402387 0,-0.815798 1.0996737,-0.813042 0.1929252,0 0.3279728,0.01929 v -0.09371 q 0,-0.413411 -0.6035803,-0.413411 -0.2452906,0 -0.6394092,0.15434 z m 1.000455,1.251258 q -0.6724822,0 -0.6724822,0.413411 0,0.275607 0.2480467,0.319704 0.085438,0.01654 0.2011934,0.01378 0.3555336,0 0.4657766,-0.223242 V 27.126863 Q 5.7161997,27.110327 5.578396,27.110327 Z m 2.3591998,0.733115 q 0.110243,0 0.2149738,-0.03307 v 0.501605 q -0.1570962,0.03307 -0.3389971,0.03307 -0.3886065,0 -0.631141,-0.250803 Q 6.9398969,27.840686 6.9398969,27.38869 V 26.269724 H 6.5237297 v -0.476801 h 0.4161672 v -1.041796 h 0.5098738 v 1.041796 h 0.5897999 v 0.476801 H 7.4497707 v 1.10243 q 0,0.471288 0.4878251,0.471288 z m 1.3697685,0.01929 q 0.4905813,0 0.4905813,-0.592556 v -1.48828 H 10.3216 v 2.508028 H 9.8034577 v -0.396875 q -0.1350476,0.451996 -0.7358718,0.451996 -0.6008242,0 -0.7276036,-0.567751 -0.044097,-0.187413 -0.041341,-0.443728 v -1.55167 h 0.5236542 v 1.48828 q 0,0.303168 0.1157551,0.44924 0.1157551,0.143316 0.3693137,0.143316 z m 2.2351767,-2.119421 q 0.09922,-0.02205 0.170877,-0.02205 0.07166,0 0.146072,0.01378 v 0.54019 q -0.08268,-0.02205 -0.20395,-0.02205 -0.261827,0 -0.443728,0.15434 -0.181901,0.151584 -0.181901,0.427191 v 1.449695 h -0.548458 v -2.497003 h 0.531922 l 0.02205,0.338997 q 0.140559,-0.30868 0.507117,-0.383094 z m 2.491491,2.472199 q -0.350022,0.129535 -0.733116,0.129535 -0.686263,0 -0.989431,-0.344509 -0.303168,-0.347266 -0.303168,-0.945334 0,-0.598068 0.300412,-0.959114 0.300412,-0.363801 0.80753,-0.363801 0.509874,0 0.788237,0.333485 0.278364,0.333485 0.278364,0.854383 0,0.198437 -0.01654,0.303168 h -1.6123 q 0,0.518142 0.496093,0.60358 0.143316,0.02481 0.292144,0.02481 0.355534,0 0.691775,-0.143316 z m -0.35829,-1.416623 q 0,-0.264583 -0.157096,-0.416167 -0.157097,-0.15434 -0.399631,-0.15434 -0.239779,0 -0.402387,0.148828 -0.162608,0.148828 -0.162608,0.421679 z m 0.694531,-0.261827 q 0.0028,-0.562239 0.570508,-0.74414 0.176388,-0.05512 0.474044,-0.05512 0.300413,0 0.531923,0.115755 v 0.476801 q -0.220486,-0.135048 -0.34451,-0.146072 -0.124023,-0.01378 -0.261827,-0.01378 -0.137803,0 -0.292143,0.07441 -0.157097,0.07166 -0.157097,0.192926 0,0.121267 0.0882,0.179144 0.140559,0.08544 0.383094,0.151585 0.245291,0.06614 0.344509,0.137803 0.303168,0.209462 0.303168,0.578776 0,0.369314 -0.267339,0.614604 -0.267339,0.245291 -0.741384,0.245291 -0.330729,0 -0.598068,-0.08544 v -0.504362 q 0.264583,0.101975 0.587044,0.101975 0.322461,0 0.460264,-0.151584 0.05237,-0.05512 0.05237,-0.162609 0,-0.107487 -0.110243,-0.176388 -0.107487,-0.0689 -0.440972,-0.168121 -0.333485,-0.09922 -0.457508,-0.272851 -0.124024,-0.173633 -0.124024,-0.388607 z m 2.384004,1.772156 H 16.158965 V 27.5761 h 0.595312 z m 1.3615,-2.813952 h -0.548459 v -0.562239 h 0.548459 z m -0.476801,3.709676 q -0.157096,0.04961 -0.330728,0.04961 -0.170877,0 -0.407899,-0.03583 v -0.465777 q 0.383094,0.04961 0.487825,-0.0083 0.107487,-0.05512 0.148828,-0.168121 0.04134,-0.110243 0.04134,-0.316948 v -2.463931 h 0.537434 v 2.582442 q 0,0.675238 -0.476801,0.826822 z m 0.642167,-2.66788 q 0.0028,-0.562239 0.570507,-0.74414 0.176389,-0.05512 0.474045,-0.05512 0.300412,0 0.531922,0.115755 v 0.476801 q -0.220486,-0.135048 -0.344509,-0.146072 -0.124023,-0.01378 -0.261827,-0.01378 -0.137804,0 -0.292144,0.07441 -0.157096,0.07166 -0.157096,0.192926 0,0.121267 0.08819,0.179144 0.14056,0.08544 0.383095,0.151585 0.24529,0.06614 0.344509,0.137803 0.303168,0.209462 0.303168,0.578776 0,0.369314 -0.267339,0.614604 -0.267339,0.245291 -0.741384,0.245291 -0.330729,0 -0.598068,-0.08544 v -0.504362 q 0.264583,0.101975 0.587044,0.101975 0.32246,0 0.460264,-0.151584 0.05237,-0.05512 0.05237,-0.162609 0,-0.107487 -0.110243,-0.176388 -0.107486,-0.0689 -0.440971,-0.168121 -0.333485,-0.09922 -0.457509,-0.272851 -0.124023,-0.173633 -0.124023,-0.388607 z m 3.908112,0.493338 q 0,0.592556 -0.267339,0.950845 -0.264583,0.355534 -0.785482,0.355534 -0.520898,0 -0.790993,-0.355534 -0.270095,-0.355533 -0.270095,-0.950845 0,-0.923285 0.592556,-1.209917 0.195681,-0.09371 0.465776,-0.09371 0.518142,0 0.785482,0.355534 0.270095,0.352778 0.270095,0.94809 z m -1.050064,0.818554 q 0.278363,0 0.39963,-0.206706 0.124024,-0.209462 0.124024,-0.518142 0,-0.30868 -0.03032,-0.457508 -0.03032,-0.151584 -0.09371,-0.248047 -0.121267,-0.184657 -0.39963,-0.184657 -0.278364,0 -0.402387,0.187413 -0.124024,0.184657 -0.124024,0.598068 0,0.413411 0.124024,0.622873 0.126779,0.206706 0.402387,0.206706 z m 2.753318,-1.055577 q 0,-0.584288 -0.487825,-0.584288 -0.248046,0 -0.388606,0.143316 -0.137804,0.14056 -0.137804,0.440972 v 1.496549 h -0.515386 v -2.483223 h 0.509874 l -0.0055,0.396874 q 0.06063,-0.228754 0.253559,-0.355533 0.192925,-0.12678 0.413411,-0.12678 0.870919,0 0.870919,1.033528 v 1.535134 h -0.51263 z"
     id="text1-8-5"
     aria-label="features.json" /><path
     style="-inkscape-font-specification:Keraleeyam;fill:#f0f6fc;stroke-width:0.264583"
     d="m 76.416263,19.30961 q 0.429259,0 0.429259,-0.518487 v -1.302246 h 0.458198 v 2.194526 h -0.453375 v -0.347266 q -0.118166,0.395497 -0.643888,0.395497 -0.525722,0 -0.636654,-0.496783 -0.03858,-0.163986 -0.03617,-0.388262 v -1.357712 h 0.458197 v 1.302246 q 0,0.265272 0.101286,0.393086 0.101286,0.125401 0.32315,0.125401 z m 2.358513,-0.935688 q 0,-0.511252 -0.426847,-0.511252 -0.217041,0 -0.340031,0.125401 -0.120579,0.12299 -0.120579,0.385851 v 1.309481 h -0.450963 v -2.172822 h 0.44614 l -0.0048,0.347266 q 0.05305,-0.200161 0.221864,-0.311093 0.16881,-0.110932 0.361735,-0.110932 0.762056,0 0.762056,0.904338 v 1.343243 h -0.448552 z m 1.063501,-1.164787 h -0.460609 v -0.470256 h 0.460609 z m 0,2.474268 h -0.460609 v -2.18488 h 0.460609 z m 1.203372,-0.397909 q 0.272507,0 0.489548,-0.101285 v 0.463021 q -0.245979,0.0844 -0.525721,0.0844 -0.518487,0 -0.774113,-0.311092 -0.255627,-0.313504 -0.255627,-0.827167 0,-0.513664 0.262861,-0.82958 0.262861,-0.318327 0.754821,-0.318327 0.255626,0 0.513664,0.09164 v 0.438905 q -0.21463,-0.09164 -0.395497,-0.09164 -0.344854,0 -0.508841,0.173633 -0.163987,0.171221 -0.163987,0.537779 0,0.689708 0.602892,0.689708 z m 2.47668,-0.704177 q 0,0.518487 -0.233922,0.83199 -0.23151,0.311093 -0.687296,0.311093 -0.455787,0 -0.69212,-0.311093 -0.236334,-0.311092 -0.236334,-0.83199 0,-0.807875 0.518487,-1.058678 0.171221,-0.08199 0.407555,-0.08199 0.453375,0 0.687297,0.311093 0.236333,0.30868 0.236333,0.829579 z m -0.918807,0.716235 q 0.243568,0 0.349677,-0.180867 0.108521,-0.183279 0.108521,-0.453375 0,-0.270096 -0.02653,-0.40032 -0.02653,-0.132636 -0.08199,-0.217041 -0.106109,-0.161575 -0.349677,-0.161575 -0.243568,0 -0.352089,0.163986 -0.10852,0.161575 -0.10852,0.52331 0,0.361736 0.10852,0.545015 0.110932,0.180867 0.352088,0.180867 z m 2.006425,-1.842437 q 0.08682,-0.01929 0.149517,-0.01929 0.0627,0 0.127813,0.01206 v 0.472667 q -0.07235,-0.01929 -0.178456,-0.01929 -0.229099,0 -0.388263,0.135047 -0.159163,0.132637 -0.159163,0.373793 V 19.67858 H 83.677493 V 17.4937 h 0.465433 l 0.01929,0.296623 q 0.12299,-0.270096 0.443729,-0.335208 z m 1.750797,0.918807 q 0,-0.511252 -0.426848,-0.511252 -0.217041,0 -0.340031,0.125401 -0.120578,0.12299 -0.120578,0.385851 v 1.309481 h -0.450963 v -2.172822 h 0.44614 l -0.0048,0.347266 q 0.05305,-0.200161 0.221864,-0.311093 0.16881,-0.110932 0.361735,-0.110932 0.762055,0 0.762055,0.904338 v 1.343243 h -0.448551 z m 1.10691,1.326362 h -0.520899 v -0.641477 h 0.520899 z m 1.191314,-0.41479 q 0.272507,0 0.489548,-0.101285 v 0.463021 q -0.24598,0.0844 -0.525722,0.0844 -0.518487,0 -0.774113,-0.311092 -0.255626,-0.313504 -0.255626,-0.827167 0,-0.513664 0.262861,-0.82958 0.262861,-0.318327 0.75482,-0.318327 0.255626,0 0.513664,0.09164 v 0.438905 q -0.214629,-0.09164 -0.395497,-0.09164 -0.344854,0 -0.508841,0.173633 -0.163986,0.171221 -0.163986,0.537779 0,0.689708 0.602892,0.689708 z"
     id="text1-8-5-0-5"
     aria-label="unicorn.c" /><path
     style="-inkscape-font-specification:Keraleeyam;fill:#f0f6fc;stroke-width:0.264583"
     d="m 90.972812,27.14563 q 0.429259,0 0.429259,-0.518487 v -1.302247 h 0.458198 v 2.194527 h -0.453375 v -0.347266 q -0.118166,0.395497 -0.643888,0.395497 -0.525722,0 -0.636654,-0.496783 -0.03858,-0.163987 -0.03617,-0.388262 v -1.357713 h 0.458197 v 1.302247 q 0,0.265272 0.101286,0.393085 0.101286,0.125402 0.32315,0.125402 z m 2.358513,-0.935689 q 0,-0.511252 -0.426847,-0.511252 -0.217041,0 -0.340031,0.125402 -0.120579,0.12299 -0.120579,0.38585 v 1.309482 H 91.992905 V 25.3466 h 0.44614 l -0.0048,0.347266 q 0.05306,-0.20016 0.221864,-0.311092 0.16881,-0.110932 0.361735,-0.110932 0.762056,0 0.762056,0.904338 v 1.343243 h -0.448552 z m 1.063501,-1.164787 h -0.460609 v -0.470255 h 0.460609 z m 0,2.474269 h -0.460609 v -2.184881 h 0.460609 z m 1.203372,-0.397909 q 0.272507,0 0.489549,-0.101286 v 0.463021 q -0.24598,0.08441 -0.525722,0.08441 -0.518487,0 -0.774113,-0.311092 -0.255626,-0.313504 -0.255626,-0.827168 0,-0.513664 0.26286,-0.829579 0.262861,-0.318327 0.754821,-0.318327 0.255626,0 0.513664,0.09164 v 0.438905 q -0.21463,-0.09164 -0.395497,-0.09164 -0.344854,0 -0.508841,0.173633 -0.163987,0.171221 -0.163987,0.53778 0,0.689708 0.602892,0.689708 z m 2.47668,-0.704178 q 0,0.518487 -0.233922,0.831991 -0.23151,0.311092 -0.687296,0.311092 -0.455787,0 -0.69212,-0.311092 -0.236334,-0.311092 -0.236334,-0.831991 0,-0.807875 0.518487,-1.058678 0.171222,-0.08199 0.407555,-0.08199 0.453375,0 0.687297,0.311092 0.236333,0.308681 0.236333,0.829579 z m -0.918807,0.716236 q 0.243569,0 0.349678,-0.180868 0.10852,-0.183279 0.10852,-0.453374 0,-0.270096 -0.02653,-0.400321 -0.02653,-0.132636 -0.08199,-0.217041 -0.106109,-0.161575 -0.349678,-0.161575 -0.243568,0 -0.352089,0.163987 -0.10852,0.161575 -0.10852,0.52331 0,0.361735 0.10852,0.545014 0.110933,0.180868 0.352089,0.180868 z m 2.006425,-1.842438 q 0.08682,-0.01929 0.149517,-0.01929 0.0627,0 0.127813,0.01206 v 0.472667 q -0.07235,-0.01929 -0.178456,-0.01929 -0.229099,0 -0.388262,0.135048 -0.159164,0.132636 -0.159164,0.373793 v 1.268484 h -0.479902 v -2.18488 h 0.465433 l 0.01929,0.296623 q 0.12299,-0.270095 0.443729,-0.335208 z m 1.750794,0.918807 q 0,-0.511252 -0.42684,-0.511252 -0.21705,0 -0.34004,0.125402 -0.12057,0.12299 -0.12057,0.38585 v 1.309482 H 99.574873 V 25.3466 h 0.446137 l -0.005,0.347266 q 0.053,-0.20016 0.22186,-0.311092 0.16881,-0.110932 0.36174,-0.110932 0.76205,0 0.76205,0.904338 v 1.343243 h -0.44855 z m 1.10691,1.326363 h -0.5209 v -0.641477 h 0.5209 z m 0.58842,-1.902727 q 0.21463,-0.33762 0.60531,-0.33762 0.51366,0 0.68247,0.496783 0.0627,0.178456 0.0627,0.441317 v 1.285366 h -0.46302 v -1.290189 q 0,-0.511252 -0.42685,-0.511252 -0.21704,0 -0.34003,0.125401 -0.12058,0.12299 -0.12058,0.385851 v 1.290189 h -0.45096 V 24.42297 h 0.45096 z"
     id="text1-8-5-0-5-9"
     aria-label="unicorn.h" /><path
     id="path2-6-8-5"
     style="fill:#f0f6fc;fill-opacity:1;stroke-width:0.0115981"
     d="m 77.993595,1.9308987 c -0.409413,0 -0.742425,0.3326386 -0.742425,0.7420516 V 14.755876 c 0,0.409413 0.333012,0.742424 0.742425,0.742424 h 8.690798 0.01752 v -3.72e-4 c 0.395926,-0.0093 0.716054,-0.329911 0.724539,-0.726034 h 3.75e-4 v -0.01602 -9.5073507 c 0,-0.1971673 -0.07873,-0.3853421 -0.217175,-0.5252474 -0.647622,-0.6544521 -2.575204,-2.575575 -2.575204,-2.575575 0,0 -0.328453,-0.2168042 -0.525621,-0.2168042 z m 0,0.5565387 h 6.05152 v 2.072306 c 0,0.4034545 0.183888,0.7524822 0.752483,0.7524822 h 2.072309 v 9.4436504 c 0,0.102063 -0.08345,0.185513 -0.185514,0.185513 h -8.690798 c -0.102063,0 -0.185886,-0.08345 -0.185886,-0.185513 V 2.6729503 c 0,-0.102064 0.08382,-0.1855129 0.185886,-0.1855129 z" /><path
     d="m 94.22075,13.008947 h 2.624878 c 0.16132,0 0.29165,0.130332 0.29165,0.291653 0,0.161321 -0.13033,0.291654 -0.29165,0.291654 H 94.22075 c -0.161322,0 -0.291654,-0.130333 -0.291654,-0.291654 0,-0.161321 0.130332,-0.291653 0.291654,-0.291653 z"
     id="path1213-6-0"
     style="fill:#f0f6fc;fill-opacity:1;stroke-width:0.00911422" /><path
     d="m 94.22075,15.139504 h 5.607659 c 0.16132,0 0.291651,0.130333 0.291651,0.291653 0,0.161322 -0.130331,0.291654 -0.291651,0.291654 H 94.22075 c -0.161322,0 -0.291654,-0.130332 -0.291654,-0.291654 0,-0.16132 0.130332,-0.291653 0.291654,-0.291653 z"
     id="path1213-6-1-3"
     style="fill:#f0f6fc;fill-opacity:1;stroke-width:0.00911422" /><path
     d="m 94.22075,17.259109 h 5.607659 c 0.16132,0 0.291651,0.130332 0.291651,0.291653 0,0.161321 -0.130331,0.291654 -0.291651,0.291654 H 94.22075 c -0.161322,0 -0.291654,-0.130333 -0.291654,-0.291654 0,-0.161321 0.130332,-0.291653 0.291654,-0.291653 z"
     id="path1213-6-1-8-7"
     style="fill:#f0f6fc;fill-opacity:1;stroke-width:0.00911422" /><path
     d="m 94.22105,19.373046 h 2.624878 c 0.16132,0 0.29166,0.130333 0.29166,0.291653 0,0.161321 -0.13034,0.291654 -0.29166,0.291654 H 94.22105 c -0.161321,0 -0.291654,-0.130333 -0.291654,-0.291654 0,-0.16132 0.130333,-0.291653 0.291654,-0.291653 z"
     id="path1213-6-9-8"
     style="fill:#f0f6fc;fill-opacity:1;stroke-width:0.00911422" /><path
     id="path2-6-8-5-8"
     style="fill:#f0f6fc;fill-opacity:1;stroke-width:0.0115981"
     d="m 92.679176,9.7669158 c -0.409413,0 -0.742425,0.3326382 -0.742425,0.7420512 v 12.082926 c 0,0.409413 0.333012,0.742424 0.742425,0.742424 h 8.690804 0.0175 v -3.72e-4 c 0.39592,-0.0093 0.71605,-0.329911 0.72454,-0.726034 h 3.7e-4 v -0.01602 -9.507351 c 0,-0.197167 -0.0787,-0.385342 -0.21717,-0.525247 -0.64763,-0.654452 -2.575212,-2.575575 -2.575212,-2.575575 0,0 -0.32845,-0.2168042 -0.52562,-0.2168042 z m 0,0.5565382 h 6.051522 v 2.072306 c 0,0.403455 0.18389,0.752483 0.752479,0.752483 h 2.072313 v 9.44365 c 0,0.102063 -0.0834,0.185513 -0.18551,0.185513 h -8.690804 c -0.102063,0 -0.185886,-0.08345 -0.185886,-0.185513 V 10.508967 c 0,-0.102064 0.08382,-0.185513 0.185886,-0.185513 z" /><path
     style="-inkscape-font-specification:Keraleeyam;fill:#f0f6fc;stroke-width:0.264583"
     d="m 39.238687,25.890767 c 0.181901,-0.01286 0.381257,-0.09003 0.598068,-0.23151 v 0.542947 c -0.09738,0.05879 -0.223242,0.09462 -0.377582,0.107487 0.01837,0.05879 0.02756,0.141475 0.02756,0.248046 0,0.23886 -0.09003,0.440054 -0.270095,0.603581 -0.178227,0.161689 -0.419843,0.242534 -0.724848,0.242534 -0.115755,0 -0.247128,-0.01654 -0.394118,-0.04961 -0.110243,0.0735 -0.165365,0.150665 -0.165365,0.23151 0,0.07901 0.01654,0.130454 0.04961,0.15434 0.06247,0.04593 0.151587,0.06982 0.26734,0.07166 0.117592,0 0.324297,0.0028 0.620116,0.0083 0.297656,0.0037 0.517223,0.06889 0.658702,0.195682 0.141479,0.124942 0.212218,0.298575 0.212218,0.520898 0,0.270095 -0.127698,0.486906 -0.383095,0.650433 -0.255396,0.165365 -0.576938,0.248047 -0.964626,0.248047 -0.683506,0 -1.025259,-0.213136 -1.025259,-0.639409 0,-0.244372 0.128617,-0.44924 0.38585,-0.614605 -0.161689,-0.108405 -0.242534,-0.251721 -0.242534,-0.429948 0,-0.121267 0.02572,-0.221404 0.07717,-0.300412 0.05329,-0.08085 0.127701,-0.157096 0.223242,-0.228754 -0.222323,-0.167202 -0.333485,-0.388607 -0.333485,-0.664214 0,-0.277445 0.09187,-0.498849 0.275607,-0.664214 0.183739,-0.167201 0.429948,-0.250802 0.738628,-0.250802 0.310518,0 0.559483,0.08268 0.746896,0.248046 z m -0.286631,0.633897 c 0,-0.303168 -0.155259,-0.454752 -0.465777,-0.454752 -0.30868,0 -0.46302,0.152503 -0.46302,0.457508 0,0.305006 0.158015,0.457509 0.474044,0.457509 0.163527,0 0.280201,-0.04042 0.350022,-0.121268 0.06982,-0.08268 0.104731,-0.195681 0.104731,-0.338997 z M 38.38706,28.96379 c 0.387688,0.0019 0.636653,-0.07255 0.746896,-0.223242 0.03491,-0.04777 0.05237,-0.105651 0.05237,-0.173633 0,-0.06798 -0.02664,-0.127697 -0.07993,-0.179144 -0.05329,-0.05145 -0.153424,-0.07901 -0.300412,-0.08268 l -0.51263,-0.01102 c -0.225998,-0.0055 -0.361046,0.06521 -0.405143,0.212218 -0.01103,0.04226 -0.01746,0.08911 -0.01929,0.14056 0,0.110243 0.04869,0.190169 0.146072,0.239778 0.09922,0.05145 0.223242,0.07717 0.37207,0.07717 z m 3.610458,-0.832334 c -0.233348,0.08636 -0.47772,0.129535 -0.733116,0.129535 -0.457508,0 -0.787318,-0.114836 -0.989431,-0.344509 -0.202112,-0.23151 -0.303168,-0.546621 -0.303168,-0.945334 0,-0.398712 0.100137,-0.718416 0.300412,-0.959113 0.200275,-0.242535 0.469451,-0.363802 0.80753,-0.363802 0.339916,0 0.602662,0.111162 0.788237,0.333485 0.185576,0.222323 0.278364,0.507118 0.278364,0.854383 0,0.132291 -0.0055,0.233347 -0.01654,0.303168 h -1.612303 c 0,0.345428 0.165364,0.546621 0.496093,0.60358 0.09554,0.01654 0.192925,0.02481 0.292144,0.02481 0.237023,0 0.467614,-0.04777 0.691775,-0.143316 z m -0.35829,-1.416623 c 0,-0.176389 -0.05237,-0.315111 -0.157096,-0.416167 -0.104731,-0.102893 -0.237941,-0.15434 -0.399631,-0.15434 -0.159852,0 -0.293981,0.04961 -0.402387,0.148828 -0.108405,0.09922 -0.162608,0.239778 -0.162608,0.421679 z m 2.210371,-0.0055 c 0,-0.389525 -0.162608,-0.584287 -0.487825,-0.584287 -0.165364,0 -0.294899,0.04777 -0.388606,0.143315 -0.09187,0.09371 -0.137804,0.240697 -0.137804,0.440972 v 1.496549 h -0.515386 v -2.483223 h 0.509874 l -0.0055,0.396874 c 0.04042,-0.152503 0.12494,-0.271014 0.253559,-0.355533 0.128617,-0.08452 0.26642,-0.12678 0.413411,-0.12678 0.580613,0 0.870919,0.344509 0.870919,1.033528 v 1.535134 h -0.51263 z m 2.695441,1.422135 c -0.233347,0.08636 -0.477719,0.129535 -0.733115,0.129535 -0.457509,0 -0.787319,-0.114836 -0.989431,-0.344509 -0.202112,-0.23151 -0.303168,-0.546621 -0.303168,-0.945334 0,-0.398712 0.100137,-0.718416 0.300412,-0.959113 0.200275,-0.242535 0.469451,-0.363802 0.80753,-0.363802 0.339915,0 0.602661,0.111162 0.788237,0.333485 0.185575,0.222323 0.278363,0.507118 0.278363,0.854383 0,0.132291 -0.0055,0.233347 -0.01654,0.303168 h -1.612304 c 0,0.345428 0.165365,0.546621 0.496094,0.60358 0.09554,0.01654 0.192925,0.02481 0.292144,0.02481 0.237022,0 0.467613,-0.04777 0.691774,-0.143316 z m -0.358289,-1.416623 c 0,-0.176389 -0.05237,-0.315111 -0.157097,-0.416167 -0.104731,-0.102893 -0.237941,-0.15434 -0.39963,-0.15434 -0.159853,0 -0.293982,0.04961 -0.402387,0.148828 -0.108406,0.09922 -0.162609,0.239778 -0.162609,0.421679 z m 1.750107,-1.055576 c 0.06615,-0.0147 0.123105,-0.02205 0.170876,-0.02205 0.04777,0 0.09646,0.0046 0.146072,0.01378 v 0.54019 c -0.05512,-0.0147 -0.123103,-0.02205 -0.203949,-0.02205 -0.174552,0 -0.322461,0.05145 -0.443728,0.15434 -0.121267,0.101056 -0.181901,0.243453 -0.181901,0.427191 v 1.449696 h -0.548459 v -2.497004 h 0.531922 l 0.02205,0.338997 c 0.09371,-0.205787 0.262746,-0.333485 0.507118,-0.383094 z m 0.639409,0.115755 c 0.222323,-0.08085 0.436378,-0.121267 0.642165,-0.121267 0.389525,0 0.676157,0.07809 0.859895,0.234266 0.185576,0.15434 0.278364,0.412492 0.278364,0.774457 v 1.562694 h -0.52641 l -0.01102,-0.220486 c -0.11208,0.170877 -0.309599,0.256315 -0.592556,0.256315 -0.384013,0 -0.63849,-0.139641 -0.763432,-0.418923 -0.04777,-0.102893 -0.07166,-0.237022 -0.07166,-0.402387 0,-0.543865 0.366558,-0.814879 1.099673,-0.813042 0.128617,0 0.237942,0.0064 0.327973,0.01929 v -0.09371 c 0,-0.275607 -0.201193,-0.413411 -0.60358,-0.413411 -0.163527,0 -0.376664,0.05145 -0.639409,0.15434 z m 1.000455,1.251258 c -0.448321,0 -0.672482,0.137804 -0.672482,0.413411 0,0.183738 0.08268,0.290306 0.248046,0.319705 0.05696,0.01103 0.124025,0.01562 0.201194,0.01378 0.237022,0 0.392281,-0.07441 0.465776,-0.223242 v -0.507118 c -0.06982,-0.01103 -0.150665,-0.01654 -0.242534,-0.01654 z m 2.359199,0.733116 c 0.0735,0 0.145153,-0.01102 0.214974,-0.03307 v 0.501605 c -0.104731,0.02205 -0.21773,0.03307 -0.338997,0.03307 -0.259071,0 -0.469452,-0.0836 -0.631141,-0.250803 -0.16169,-0.169039 -0.242535,-0.404224 -0.242535,-0.705555 v -1.118966 h -0.416167 v -0.476801 h 0.416167 V 24.66707 h 0.509874 v 1.041796 h 0.5898 v 0.476801 h -0.5898 v 1.10243 c 0,0.314193 0.162608,0.471289 0.487825,0.471289 z m 2.384005,0.37207 c -0.233348,0.08636 -0.47772,0.129535 -0.733116,0.129535 -0.457509,0 -0.787319,-0.114836 -0.989431,-0.344509 -0.202112,-0.23151 -0.303168,-0.546621 -0.303168,-0.945334 0,-0.398712 0.100137,-0.718416 0.300412,-0.959113 0.200275,-0.242535 0.469451,-0.363802 0.80753,-0.363802 0.339916,0 0.602662,0.111162 0.788237,0.333485 0.185576,0.222323 0.278364,0.507118 0.278364,0.854383 0,0.132291 -0.0055,0.233347 -0.01654,0.303168 h -1.612303 c 0,0.345428 0.165364,0.546621 0.496093,0.60358 0.09554,0.01654 0.192925,0.02481 0.292144,0.02481 0.237022,0 0.467614,-0.04777 0.691775,-0.143316 z m -0.35829,-1.416623 c 0,-0.176389 -0.05237,-0.315111 -0.157096,-0.416167 -0.104731,-0.102893 -0.237942,-0.15434 -0.399631,-0.15434 -0.159853,0 -0.293982,0.04961 -0.402387,0.148828 -0.108405,0.09922 -0.162608,0.239778 -0.162608,0.421679 z m 1.270551,1.510329 h -0.595312 v -0.733116 h 0.595312 z m 0.65319,-2.235176 c 0.115755,-0.235185 0.332566,-0.352778 0.650433,-0.352778 0.483232,0 0.795587,0.23886 0.937066,0.71658 0.04777,0.161689 0.07166,0.35094 0.07166,0.567751 0,0.433623 -0.08728,0.766189 -0.261827,0.997699 -0.174551,0.23151 -0.415248,0.347265 -0.722091,0.347265 -0.305005,0 -0.530085,-0.115755 -0.675238,-0.347265 v 1.457963 h -0.518142 v -3.682115 h 0.507117 z m 0,1.449695 c 0.106568,0.169039 0.27377,0.253559 0.501605,0.253559 0.290307,0 0.478638,-0.135966 0.564995,-0.407899 0.03123,-0.09922 0.04685,-0.246209 0.04685,-0.440972 0,-0.194763 -0.04502,-0.354615 -0.135048,-0.479557 -0.08819,-0.126779 -0.247128,-0.190169 -0.476801,-0.190169 -0.229673,0 -0.383094,0.103812 -0.460264,0.311436 -0.02572,0.07166 -0.0395,0.157096 -0.04134,0.256315 z m 2.858048,1.780424 c -0.05696,0.07533 -0.128618,0.134129 -0.214974,0.176389 -0.08636,0.0441 -0.192006,0.06615 -0.316948,0.06615 -0.124942,0 -0.248047,-0.0147 -0.369314,-0.0441 v -0.44924 c 0.209461,0.06063 0.371151,0.05696 0.485069,-0.01102 0.113917,-0.06798 0.197518,-0.1966 0.250803,-0.38585 l 0.09922,-0.347266 -0.98943,-2.51354 h 0.598068 l 0.628385,1.951301 0.609092,-1.951301 h 0.57602 l -1.083138,2.915927 c -0.04409,0.117593 -0.08635,0.226917 -0.126779,0.327973 -0.03859,0.102893 -0.08728,0.191088 -0.146072,0.264583 z m 3.403751,-1.014235 h -1.904448 v -0.476801 l 1.309136,-1.535134 H 60.29785 v -0.465776 h 1.849326 v 0.476801 l -1.309136,1.535133 h 1.309136 z"
     id="text1-8-5-0-59"
     aria-label="generate.pyz" /></svg>
