<?xml version="1.0" encoding="UTF-8" standalone="no"?>
<!-- Created with Inkscape (http://www.inkscape.org/) -->

<svg
   width="394"
   height="114"
   viewBox="0 0 104.2458 30.162501"
   version="1.1"
   id="svg5"
   xml:space="preserve"
   sodipodi:docname="customization.svg"
   inkscape:version="1.4 (1:1.4+202410161351+e7c3feb100)"
   xmlns:inkscape="http://www.inkscape.org/namespaces/inkscape"
   xmlns:sodipodi="http://sodipodi.sourceforge.net/DTD/sodipodi-0.dtd"
   xmlns="http://www.w3.org/2000/svg"
   xmlns:svg="http://www.w3.org/2000/svg"><sodipodi:namedview
     id="namedview29"
     pagecolor="#0e455e"
     bordercolor="#666666"
     borderopacity="1.0"
     inkscape:showpageshadow="2"
     inkscape:pageopacity="0.0"
     inkscape:pagecheckerboard="0"
     inkscape:deskcolor="#d1d1d1"
     inkscape:document-units="mm"
     showgrid="false"
     inkscape:zoom="2.0416786"
     inkscape:cx="242.44756"
     inkscape:cy="37.958962"
     inkscape:window-width="2490"
     inkscape:window-height="1536"
     inkscape:window-x="1750"
     inkscape:window-y="27"
     inkscape:window-maximized="1"
     inkscape:current-layer="svg5" /><defs
     id="defs2" /><path
     id="path2-6-8"
     style="fill:#f0f6fc;fill-opacity:1;stroke-width:0.0160892"
     d="m 6.31788,4.5061849 c -0.567948,0 -1.0299114,0.4614455 -1.0299114,1.0293945 V 22.297347 c 0,0.567949 0.4619634,1.029911 1.0299114,1.029911 h 12.056112 0.02429 v -5.16e-4 c 0.549246,-0.01286 0.993338,-0.457662 1.005106,-1.007174 h 5.17e-4 V 22.297347 9.108488 c 0,-0.273516 -0.109219,-0.5345572 -0.301273,-0.7286377 -0.898395,-0.907874 -3.572392,-3.5729086 -3.572392,-3.5729086 0,0 -0.455638,-0.3007568 -0.729155,-0.3007568 z m 0,0.7720459 h 8.394836 v 2.8747599 c 0,0.5596832 0.255094,1.043864 1.043865,1.043864 h 2.87476 V 22.297347 c 0,0.141585 -0.115765,0.257349 -0.257349,0.257349 H 6.31788 c -0.141584,0 -0.2578654,-0.115764 -0.2578654,-0.257349 V 5.5355794 c 0,-0.141586 0.1162814,-0.2573486 0.2578654,-0.2573486 z"
     sodipodi:nodetypes="ssssccccccsscssscsscssssss" /><g
     aria-label="EXE"
     transform="matrix(0.02547821,0,0,0.0364764,5.5569177,6.4839756)"
     id="text346"
     style="font-size:184.003px;line-height:1.25;stroke-width:0.95835" /><path
     d="m 32.722433,14.13676 c 0.185271,-0.185271 0.185271,-0.486151 0,-0.671421 l -2.371465,-2.371466 c -0.185271,-0.185271 -0.486151,-0.185271 -0.671421,0 -0.185271,0.18527 -0.185271,0.486151 0,0.671421 l 1.563685,1.562204 h -4.547286 c -0.262343,0 -0.474293,0.211949 -0.474293,0.474293 0,0.262343 0.21195,0.474293 0.474293,0.474293 h 4.545803 l -1.56072,1.562202 c -0.185271,0.185272 -0.185271,0.486151 0,0.671422 0.18527,0.18527 0.48615,0.18527 0.671421,0 l 2.371465,-2.371466 z"
     id="path1574"
     style="fill:#f0f6fc;fill-opacity:1;stroke:none;stroke-width:0.0148216;stroke-opacity:1" /><g
     id="g1772"
     transform="translate(3.6143553,1.7889325)"
     style="fill:#f0f6fc;fill-opacity:1"><path
       id="path753"
       style="fill:#f0f6fc;fill-opacity:1;stroke-width:0.0352114"
       d="m 38.574357,5.3015908 c -1.242957,4.7e-6 -1.724442,0.4809664 -1.724442,1.7239258 v 9.9740684 c 0,1.24296 0.481485,1.724442 1.724442,1.724442 H 49.875993 V 17.562858 H 38.574357 c -0.309858,0 -0.563273,-0.253412 -0.563273,-0.563273 V 8.6135333 c 0,-0.3098601 0.253415,-0.5632731 0.563273,-0.5632731 h 15.137578 c 0.404969,0 0.579473,0.2387796 0.563273,0.5627564 v 4.8012574 h 1.160653 V 7.0255166 C 55.390044,5.6509995 55.08645,5.3474075 53.711935,5.3015908 Z m 0.520382,0.9828857 c 0.276119,1.596e-4 0.499837,0.2241094 0.499711,0.5002279 -1.59e-4,0.2759167 -0.223794,0.4995517 -0.499711,0.4997111 C 38.81862,7.2845415 38.594671,7.060823 38.594511,6.7847044 38.594385,6.508384 38.818419,6.2843505 39.094739,6.2844765 Z m 1.444873,0 c 0.276119,1.596e-4 0.499837,0.2241094 0.499711,0.5002279 -1.59e-4,0.2759167 -0.223794,0.4995517 -0.499711,0.4997111 -0.276119,1.26e-4 -0.500068,-0.2235925 -0.500228,-0.4997111 -1.26e-4,-0.2763204 0.223908,-0.5003539 0.500228,-0.5002279 z m 1.434538,0 c 0.27632,-1.26e-4 0.500354,0.2239075 0.500228,0.5002279 C 42.474218,7.060823 42.250269,7.2845415 41.97415,7.2844155 41.698233,7.2842561 41.474598,7.0606211 41.474439,6.7847044 41.474313,6.5085859 41.698031,6.2846361 41.97415,6.2844765 Z" /><path
       d="m 40.399307,10.759191 c -0.154556,-0.154555 -0.154556,-0.404315 0,-0.558871 0.154554,-0.154555 0.405552,-0.154555 0.560107,0 l 2.373963,2.373964 c 0.154555,0.154554 0.154555,0.405552 0,0.560106 l -2.373963,2.373965 c -0.154555,0.154554 -0.405553,0.154554 -0.560107,0 -0.154556,-0.154556 -0.154556,-0.405553 0,-0.560109 l 2.093291,-2.094527 z m 3.049058,4.072831 h 3.560945 c 0.218851,0 0.395662,0.17681 0.395662,0.39566 0,0.21885 -0.176811,0.395661 -0.395662,0.395661 h -3.560945 c -0.21885,0 -0.39566,-0.176811 -0.39566,-0.395661 0,-0.21885 0.17681,-0.39566 0.39566,-0.39566 z"
       id="path1213"
       style="fill:#f0f6fc;fill-opacity:1;stroke-width:0.0123644" /></g><path
     d="m 79.535169,5.1729297 h 2.624878 c 0.161321,0 0.291654,0.1303322 0.291654,0.2916531 0,0.1613209 -0.130333,0.2916538 -0.291654,0.2916538 h -2.624878 c -0.161322,0 -0.291654,-0.1303329 -0.291654,-0.2916538 0,-0.1613209 0.130332,-0.2916531 0.291654,-0.2916531 z"
     id="path1213-6"
     style="fill:#f0f6fc;fill-opacity:1;stroke-width:0.00911422"
     sodipodi:nodetypes="sssssss" /><path
     d="m 79.535169,7.3034873 h 5.607658 c 0.161321,0 0.291654,0.1303322 0.291654,0.2916531 0,0.1613213 -0.130333,0.2916533 -0.291654,0.2916533 h -5.607658 c -0.161322,0 -0.291654,-0.130332 -0.291654,-0.2916533 0,-0.1613209 0.130332,-0.2916531 0.291654,-0.2916531 z"
     id="path1213-6-1"
     style="fill:#f0f6fc;fill-opacity:1;stroke-width:0.00911422"
     sodipodi:nodetypes="sssssss" /><path
     d="m 79.535169,9.4230917 h 5.607658 c 0.161321,0 0.291654,0.130332 0.291654,0.291653 0,0.161321 -0.130333,0.2916543 -0.291654,0.2916543 h -5.607658 c -0.161322,0 -0.291654,-0.1303333 -0.291654,-0.2916543 0,-0.161321 0.130332,-0.291653 0.291654,-0.291653 z"
     id="path1213-6-1-8"
     style="fill:#f0f6fc;fill-opacity:1;stroke-width:0.00911422"
     sodipodi:nodetypes="sssssss" /><path
     d="m 73.088463,14.13676 c 0.185271,-0.185271 0.185271,-0.486151 0,-0.671421 l -2.371465,-2.371466 c -0.185271,-0.185271 -0.486151,-0.185271 -0.671421,0 -0.185271,0.18527 -0.185271,0.486151 0,0.671421 l 1.563685,1.562204 h -4.547286 c -0.262343,0 -0.474293,0.211949 -0.474293,0.474293 0,0.262343 0.21195,0.474293 0.474293,0.474293 h 4.545803 l -1.56072,1.562202 c -0.185271,0.185272 -0.185271,0.486151 0,0.671422 0.18527,0.18527 0.48615,0.18527 0.671421,0 l 2.371465,-2.371466 z"
     id="path1574-2"
     style="fill:#f0f6fc;fill-opacity:1;stroke-width:0.0148216" /><g
     style="fill:none;fill-opacity:1"
     id="g3215"
     transform="matrix(8.8194444,0,0,8.8194444,-146.36271,-126.33888)"><path
       style="fill:#f0f6fc;stroke-linecap:round;stroke-linejoin:round"
       d="m 17.894531,15.685547 c -0.06538,3e-6 -0.119137,0.05376 -0.11914,0.119141 v 0.08008 c 0,0.01192 -0.0041,0.03477 -0.01563,0.05078 -0.01152,0.01601 -0.0278,0.0293 -0.06445,0.0293 a 0.03975077,0.03975077 0 0 0 0,0.07813 c 0.01192,0 0.03478,0.0061 0.05078,0.01758 0.01601,0.01152 0.0293,0.02585 0.0293,0.0625 v 0.08008 c 3e-6,0.06538 0.05376,0.119138 0.11914,0.119141 h 0.01953 a 0.0397468,0.0397468 0 0 0 0.03906,-0.04102 0.0397468,0.0397468 0 0 0 -0.03906,-0.03906 h -0.01953 c -0.02242,-1e-6 -0.03906,-0.01664 -0.03906,-0.03906 v -0.08008 c 0,-0.05874 -0.02882,-0.102705 -0.0625,-0.126953 0.0081,-0.0071 0.02544,-0.0056 0.03125,-0.01367 0.02425,-0.03368 0.03125,-0.06983 0.03125,-0.09766 v -0.08008 c 10e-7,-0.02242 0.01664,-0.03906 0.03906,-0.03906 h 0.01953 a 0.0397468,0.0397468 0 0 0 0.03906,-0.03906 0.0397468,0.0397468 0 0 0 -0.03906,-0.04102 z m 0.21875,0 a 0.0397468,0.0397468 0 0 0 -0.03906,0.04102 0.0397468,0.0397468 0 0 0 0.03906,0.03906 h 0.01953 c 0.02242,10e-7 0.03906,0.01664 0.03906,0.03906 v 0.08008 c 0,0.02782 0.007,0.06398 0.03125,0.09766 0.0058,0.0081 0.02319,0.0066 0.03125,0.01367 -0.03368,0.02425 -0.0625,0.06822 -0.0625,0.126953 v 0.08008 c -1e-6,0.02242 -0.01664,0.03906 -0.03906,0.03906 h -0.01953 a 0.0397468,0.0397468 0 0 0 -0.03906,0.03906 0.0397468,0.0397468 0 0 0 0.03906,0.04102 h 0.01953 c 0.06538,-3e-6 0.119138,-0.05376 0.119141,-0.119141 v -0.08008 c 0,-0.03665 0.01329,-0.05098 0.0293,-0.0625 0.01601,-0.01152 0.03886,-0.01758 0.05078,-0.01758 a 0.03975077,0.03975077 0 0 0 0,-0.07813 c -0.03665,0 -0.05293,-0.01329 -0.06445,-0.0293 -0.01152,-0.01601 -0.01563,-0.03886 -0.01563,-0.05078 v -0.08008 c -3e-6,-0.06538 -0.05376,-0.119138 -0.119141,-0.119141 z"
       id="path3206" /></g><path
     d="m 79.535469,11.537029 h 2.624878 c 0.161322,0 0.291655,0.130333 0.291655,0.291653 0,0.161321 -0.130333,0.291654 -0.291655,0.291654 h -2.624878 c -0.161321,0 -0.291654,-0.130333 -0.291654,-0.291654 0,-0.16132 0.130333,-0.291653 0.291654,-0.291653 z"
     id="path1213-6-9"
     style="fill:#f0f6fc;fill-opacity:1;stroke-width:0.00911422"
     sodipodi:nodetypes="sssssss" /><g
     id="layer1"
     transform="translate(-99.210705,-38.868344)" /><g
     style="fill:#f0f6fc;fill-opacity:1"
     id="g1"
     transform="matrix(0.22395218,0,0,0.22395218,54.766298,16.270864)"><path
       d="m 19.079,0.24 1.203,0.265 0.973,0.349 0.787,0.4 0.599,0.428 0.453,0.453 0.333,0.452 0.213,0.439 0.131,0.4 0.057,0.344 0.027,0.271 -0.016,0.172 v 7.12 l -0.068,0.839 -0.172,0.735 -0.281,0.615 -0.344,0.505 -0.4,0.411 -0.437,0.333 -0.469,0.256 -0.469,0.187 -0.437,0.136 -0.4,0.088 -0.344,0.057 -0.281,0.027 h -7.964 l -0.916,0.067 -0.787,0.183 -0.667,0.297 -0.547,0.359 -0.443,0.428 -0.36,0.463 -0.265,0.485 -0.199,0.489 -0.135,0.468 -0.093,0.428 -0.053,0.359 -0.025,0.281 v 4.079 H 4.308 L 4.028,23.865 3.652,23.772 3.231,23.616 2.762,23.376 2.283,23.028 1.804,22.548 1.335,21.933 0.908,21.146 0.532,20.173 0.256,19.001 0.069,17.6 0.001,15.96 0.08,14.335 0.293,12.95 0.616,11.789 1.043,10.841 1.523,10.081 2.054,9.497 2.617,9.054 3.174,8.737 3.71,8.524 4.19,8.388 4.617,8.32 4.934,8.309 H 5.147 L 5.231,8.32 H 16.106 V 7.216 H 8.319 L 8.308,3.549 8.283,3.054 8.351,2.601 8.496,2.19 8.72,1.814 9.053,1.471 9.47,1.163 9.974,0.898 10.563,0.653 11.24,0.456 12.016,0.295 12.864,0.164 13.812,0.081 14.839,0.029 15.959,0.002 17.651,0.07 Z m -8.396,2.64 -0.308,0.437 -0.109,0.547 0.109,0.548 0.308,0.452 0.437,0.297 0.547,0.12 0.547,-0.12 L 12.651,4.864 12.959,4.412 13.068,3.864 12.959,3.317 12.651,2.88 12.214,2.588 11.667,2.469 11.12,2.588 Z m 17.453,5.265 0.369,0.084 0.427,0.156 0.469,0.24 0.479,0.359 0.48,0.469 0.468,0.625 0.427,0.785 0.371,0.975 0.281,1.177 0.187,1.385 0.068,1.64 -0.083,1.641 -0.215,1.385 -0.317,1.145 -0.427,0.948 -0.48,0.76 -0.536,0.6 -0.557,0.437 -0.563,0.323 -0.531,0.213 -0.48,0.12 -0.427,0.068 -0.317,0.025 -0.213,-0.015 H 16.052 v 1.093 h 7.787 l 0.016,3.683 0.025,0.479 -0.068,0.453 -0.145,0.411 -0.229,0.385 -0.333,0.333 -0.411,0.324 -0.505,0.265 -0.589,0.229 -0.677,0.197 -0.776,0.172 -0.853,0.12 -0.943,0.093 -1.032,0.052 -1.12,0.016 L 14.507,31.943 13.08,31.755 11.881,31.49 10.908,31.157 10.121,30.756 9.522,30.313 9.069,29.86 8.736,29.408 8.523,28.969 8.387,28.569 8.335,28.236 8.308,27.969 8.319,27.798 v -7.12 l 0.068,-0.855 0.177,-0.724 0.276,-0.609 0.349,-0.511 0.4,-0.421 0.439,-0.323 0.468,-0.267 0.464,-0.187 0.443,-0.136 0.401,-0.077 0.343,-0.052 0.453,-0.043 h 7.787 l 0.921,-0.067 0.787,-0.183 0.667,-0.281 0.547,-0.375 0.439,-0.428 0.359,-0.463 0.271,-0.485 0.199,-0.479 0.135,-0.464 0.095,-0.427 0.052,-0.375 0.025,-0.281 V 8.086 h 2.787 l 0.188,0.011 z m -8.631,19 -0.308,0.443 -0.104,0.548 0.104,0.547 0.308,0.437 0.443,0.307 0.547,0.104 0.547,-0.104 0.437,-0.307 0.308,-0.437 0.109,-0.547 -0.109,-0.548 -0.308,-0.443 -0.437,-0.307 -0.547,-0.104 -0.547,0.104 z"
       id="path1"
       style="fill:#f0f6fc;fill-opacity:1" /></g><text
     xml:space="preserve"
     style="font-size:5.64444px;line-height:1.25;font-family:'Noto Sans';-inkscape-font-specification:'Noto Sans';fill:#f0f6fc;fill-opacity:1;stroke-width:0.264583"
     x="0.13514948"
     y="28.289927"
     id="text1-8-5"><tspan
       sodipodi:role="line"
       id="tspan1-5-9"
       style="font-style:normal;font-variant:normal;font-weight:normal;font-stretch:normal;font-size:5.64444px;font-family:Keraleeyam;-inkscape-font-specification:Keraleeyam;fill:#f0f6fc;fill-opacity:1;stroke-width:0.264583"
       x="0.13514948"
       y="28.289927">features.json</tspan></text><text
     xml:space="preserve"
     style="font-size:5.64444px;line-height:1.25;font-family:'Noto Sans';-inkscape-font-specification:'Noto Sans';fill:#f0f6fc;fill-opacity:1;stroke-width:0.264583"
     x="37.215572"
     y="28.119049"
     id="text1-8-5-0"><tspan
       sodipodi:role="line"
       id="tspan1-5-9-5"
       style="font-style:normal;font-variant:normal;font-weight:normal;font-stretch:normal;font-size:5.64444px;font-family:Keraleeyam;-inkscape-font-specification:Keraleeyam;fill:#f0f6fc;fill-opacity:1;stroke-width:0.264583"
       x="37.215572"
       y="28.119049">generate.pyz</tspan></text><text
     xml:space="preserve"
     style="font-size:4.93889px;line-height:1.25;font-family:'Noto Sans';-inkscape-font-specification:'Noto Sans';fill:#f0f6fc;fill-opacity:1;stroke-width:0.264583"
     x="75.400993"
     y="19.683403"
     id="text1-8-5-0-5"><tspan
       sodipodi:role="line"
       id="tspan1-5-9-5-4"
       style="font-style:normal;font-variant:normal;font-weight:normal;font-stretch:normal;font-size:4.93889px;font-family:Keraleeyam;-inkscape-font-specification:Keraleeyam;fill:#f0f6fc;fill-opacity:1;stroke-width:0.264583"
       x="75.400993"
       y="19.683403">unicorn.c</tspan></text><text
     xml:space="preserve"
     style="font-size:4.93889px;line-height:1.25;font-family:'Noto Sans';-inkscape-font-specification:'Noto Sans';fill:#f0f6fc;fill-opacity:1;stroke-width:0.264583"
     x="89.957542"
     y="27.519423"
     id="text1-8-5-0-5-9"><tspan
       sodipodi:role="line"
       id="tspan1-5-9-5-4-9"
       style="font-style:normal;font-variant:normal;font-weight:normal;font-stretch:normal;font-size:4.93889px;font-family:Keraleeyam;-inkscape-font-specification:Keraleeyam;fill:#f0f6fc;fill-opacity:1;stroke-width:0.264583"
       x="89.957542"
       y="27.519423">unicorn.h</tspan></text><path
     id="path2-6-8-5"
     style="fill:#f0f6fc;fill-opacity:1;stroke-width:0.0115981"
     d="m 77.993595,1.9308987 c -0.409413,0 -0.742425,0.3326386 -0.742425,0.7420516 V 14.755876 c 0,0.409413 0.333012,0.742424 0.742425,0.742424 h 8.690798 0.01752 v -3.72e-4 c 0.395926,-0.0093 0.716054,-0.329911 0.724539,-0.726034 h 3.75e-4 v -0.01602 -9.5073507 c 0,-0.1971673 -0.07873,-0.3853421 -0.217175,-0.5252474 -0.647622,-0.6544521 -2.575204,-2.575575 -2.575204,-2.575575 0,0 -0.328453,-0.2168042 -0.525621,-0.2168042 z m 0,0.5565387 h 6.05152 v 2.072306 c 0,0.4034545 0.183888,0.7524822 0.752483,0.7524822 h 2.072309 v 9.4436504 c 0,0.102063 -0.08345,0.185513 -0.185514,0.185513 h -8.690798 c -0.102063,0 -0.185886,-0.08345 -0.185886,-0.185513 V 2.6729503 c 0,-0.102064 0.08382,-0.1855129 0.185886,-0.1855129 z"
     sodipodi:nodetypes="ssssccccccsscssscsscssssss" /><path
     d="m 94.22075,13.008947 h 2.624878 c 0.16132,0 0.29165,0.130332 0.29165,0.291653 0,0.161321 -0.13033,0.291654 -0.29165,0.291654 H 94.22075 c -0.161322,0 -0.291654,-0.130333 -0.291654,-0.291654 0,-0.161321 0.130332,-0.291653 0.291654,-0.291653 z"
     id="path1213-6-0"
     style="fill:#f0f6fc;fill-opacity:1;stroke-width:0.00911422"
     sodipodi:nodetypes="sssssss" /><path
     d="m 94.22075,15.139504 h 5.607659 c 0.16132,0 0.291651,0.130333 0.291651,0.291653 0,0.161322 -0.130331,0.291654 -0.291651,0.291654 H 94.22075 c -0.161322,0 -0.291654,-0.130332 -0.291654,-0.291654 0,-0.16132 0.130332,-0.291653 0.291654,-0.291653 z"
     id="path1213-6-1-3"
     style="fill:#f0f6fc;fill-opacity:1;stroke-width:0.00911422"
     sodipodi:nodetypes="sssssss" /><path
     d="m 94.22075,17.259109 h 5.607659 c 0.16132,0 0.291651,0.130332 0.291651,0.291653 0,0.161321 -0.130331,0.291654 -0.291651,0.291654 H 94.22075 c -0.161322,0 -0.291654,-0.130333 -0.291654,-0.291654 0,-0.161321 0.130332,-0.291653 0.291654,-0.291653 z"
     id="path1213-6-1-8-7"
     style="fill:#f0f6fc;fill-opacity:1;stroke-width:0.00911422"
     sodipodi:nodetypes="sssssss" /><path
     d="m 94.22105,19.373046 h 2.624878 c 0.16132,0 0.29166,0.130333 0.29166,0.291653 0,0.161321 -0.13034,0.291654 -0.29166,0.291654 H 94.22105 c -0.161321,0 -0.291654,-0.130333 -0.291654,-0.291654 0,-0.16132 0.130333,-0.291653 0.291654,-0.291653 z"
     id="path1213-6-9-8"
     style="fill:#f0f6fc;fill-opacity:1;stroke-width:0.00911422"
     sodipodi:nodetypes="sssssss" /><path
     id="path2-6-8-5-8"
     style="fill:#f0f6fc;fill-opacity:1;stroke-width:0.0115981"
     d="m 92.679176,9.7669158 c -0.409413,0 -0.742425,0.3326382 -0.742425,0.7420512 v 12.082926 c 0,0.409413 0.333012,0.742424 0.742425,0.742424 h 8.690804 0.0175 v -3.72e-4 c 0.39592,-0.0093 0.71605,-0.329911 0.72454,-0.726034 h 3.7e-4 v -0.01602 -9.507351 c 0,-0.197167 -0.0787,-0.385342 -0.21717,-0.525247 -0.64763,-0.654452 -2.575212,-2.575575 -2.575212,-2.575575 0,0 -0.32845,-0.2168042 -0.52562,-0.2168042 z m 0,0.5565382 h 6.051522 v 2.072306 c 0,0.403455 0.18389,0.752483 0.752479,0.752483 h 2.072313 v 9.44365 c 0,0.102063 -0.0834,0.185513 -0.18551,0.185513 h -8.690804 c -0.102063,0 -0.185886,-0.08345 -0.185886,-0.185513 V 10.508967 c 0,-0.102064 0.08382,-0.185513 0.185886,-0.185513 z"
     sodipodi:nodetypes="ssssccccccsscssscsscssssss" /></svg>
