<?xml version="1.0" encoding="UTF-8" standalone="no"?>
<!-- Created with Inkscape (http://www.inkscape.org/) -->

<svg
   width="234"
   height="58"
   viewBox="0 0 61.912505 15.345835"
   version="1.1"
   id="svg5"
   xml:space="preserve"
   sodipodi:docname="unicorn.svg"
   inkscape:version="1.2.2 (b0a8486541, 2022-12-01)"
   xmlns:inkscape="http://www.inkscape.org/namespaces/inkscape"
   xmlns:sodipodi="http://sodipodi.sourceforge.net/DTD/sodipodi-0.dtd"
   xmlns="http://www.w3.org/2000/svg"
   xmlns:svg="http://www.w3.org/2000/svg"><sodipodi:namedview
     id="namedview8594"
     pagecolor="#ffffff"
     bordercolor="#000000"
     borderopacity="0.25"
     inkscape:showpageshadow="2"
     inkscape:pageopacity="0.0"
     inkscape:pagecheckerboard="0"
     inkscape:deskcolor="#d1d1d1"
     showgrid="false"
     inkscape:zoom="4.2909091"
     inkscape:cx="102.30932"
     inkscape:cy="27.616525"
     inkscape:window-width="2494"
     inkscape:window-height="1531"
     inkscape:window-x="1746"
     inkscape:window-y="32"
     inkscape:window-maximized="1"
     inkscape:current-layer="svg5" /><defs
     id="defs2" /><path
     style="fill:none;fill-opacity:1;stroke:none;stroke-width:0.202575px;stroke-linecap:butt;stroke-linejoin:miter;stroke-opacity:1"
     d="M 60.553169,12.034038 59.559791,11.113707 58.420339,7.782987 C 57.879828,5.971543 55.893083,4.350009 55.893083,4.350009 54.607539,3.400462 53.175919,3.546545 53.175919,3.546545 53.059052,3.203248 52.306544,3.832083 51.831167,3.86498 51.35579,3.89788 51.157544,3.334839 51.157544,3.334839 51.676142,2.567897 52.986002,2.085703 54.388413,2.129529 l -0.934935,0.847288 c 1.168677,-0.335993 1.650745,-0.335993 1.650745,-0.335993 0.584335,0.02921 2.541872,0.949548 2.541872,0.949548 l 0.920327,-0.131477 -1.300152,0.774245 1.066419,0.160695 0.745026,0.613552 0.861901,0.04382 c 0,0 -0.233733,0.496686 -1.548494,0.219126 0,0 1.563103,0.964156 1.753012,2.264306 0.525901,0.555118 1.490054,0.628161 1.490054,0.628161 0,0 -0.540509,0.496686 -1.51927,0.496686 l 0.759635,0.598945 0.321384,1.49006 -0.642768,-0.671987 0.467467,1.329365 0.628161,0.759638 z"
     id="path8-7" /><path
     style="fill:none;stroke:#24292f;stroke-width:0.264583;stroke-linecap:round;stroke-linejoin:round;stroke-dasharray:none;stroke-opacity:1"
     d="m 60.53856,11.975603 1.241712,0.248344 c 0,0 -0.657378,-0.409035 -0.818069,-1.051806 -0.144759,-0.855823 -0.349927,-0.879697 -0.920328,-1.475451 0.438252,0.1022592 1.124845,1.066415 1.124845,1.066415 0,0 -0.02924,-1.300149 -0.467468,-1.709186 0,0 -1.826055,-0.8692 -2.30813,-1.380495 1.022586,0.737724 1.869879,0.978764 1.869879,0.978764 0.788853,0 1.402404,-0.474773 1.402404,-0.474773 0,0 -1.241712,-0.10226 -1.563095,-0.847289 0,0 -0.409043,-1.650752 -2.585698,-2.439606 1.986746,0.978765 2.512654,0.175302 2.512654,0.175302 0,0 -0.438257,0.08765 -0.934942,-0.04382 -0.721277,-0.689681 -0.991899,-0.74838 -1.928305,-0.803463 0,0 1.022586,-0.248343 1.402403,-0.745028 L 57.719138,3.604986 C 57.032544,3.444293 55.922299,2.699264 55.031189,2.611614 c 0,0 -0.77425,0.0146 -1.650754,0.45286 0.262952,-0.36521 1.197887,-0.949547 1.197887,-0.949547 -0.878952,-0.0076 -2.037875,0.123092 -2.606652,0.402251 -0.366702,0.0878 -0.805123,0.831698 -0.805123,0.831698"
     id="path7-0" /><path
     style="fill:none;fill-opacity:1;stroke:none;stroke-width:0.202575px;stroke-linecap:butt;stroke-linejoin:miter;stroke-opacity:1"
     d="M 53.13952,3.441836 C 52.731497,2.682604 51.522922,2.341722 51.522922,2.341722 c 0,0 -0.170438,0.418354 0.444177,1.482314 z"
     id="path11-9" /><path
     style="fill:none;fill-opacity:1;stroke:none;stroke-width:0.202575px;stroke-linecap:butt;stroke-linejoin:miter;stroke-opacity:1"
     d="M 51.788116,3.897148 C 49.275468,1.808144 48.019141,0.25965217 48.019141,0.25965217 49.01251,2.100312 50.750914,4.671394 50.750914,4.671394 c 1.007977,0.08765 1.037202,-0.774246 1.037202,-0.774246 z"
     id="path6-3" /><path
     style="fill:none;fill-opacity:1;stroke:#24292f;stroke-width:0.264583;stroke-linecap:round;stroke-linejoin:miter;stroke-dasharray:none;stroke-opacity:1"
     d="m 51.525165,14.21055 c 0,0 3.278338,-2.102736 2.124269,-6.076227 -1.051801,0.613554 -2.518702,0.568996 -2.518702,0.568996 -0.584335,0.08766 -1.237391,0.8052527 -1.380491,0.891113 -0.927631,0.496686 -1.570408,-0.46747 -1.570408,-0.46747 0,0 -0.496684,-0.774247 -0.146083,-1.402408 0,0 1.811445,-1.343975 2.731772,-3.082377 0,0 0.964159,0.233735 1.110244,-0.788855 l 1.300145,-0.36521 c 6.266922,0.530736 5.181821,8.040548 7.479516,8.531317 l 0.379917,2.191121"
     id="path2-6" /><circle
     style="fill:none;fill-opacity:1;stroke:#24292f;stroke-width:0.185208;stroke-linecap:round;stroke-linejoin:round;stroke-dasharray:none;stroke-opacity:1"
     id="path1-0"
     cx="-48.669231"
     cy="8.3892393"
     r="0.21432349"
     transform="scale(-1,1)" /><path
     style="fill:none;stroke:#24292f;stroke-width:0.264583;stroke-linecap:round;stroke-linejoin:miter;stroke-dasharray:none;stroke-opacity:1"
     d="m 51.926896,5.971543 c -0.584335,0.650075 -1.01529,0.08765 -1.01529,0.08765"
     id="path3-6" /><path
     style="fill:none;stroke:#24292f;stroke-width:0.264583;stroke-linecap:round;stroke-linejoin:miter;stroke-dasharray:none;stroke-opacity:1"
     d="M 49.800337,8.903966 C 49.464665,9.711041 48.724601,9.598693 48.724601,9.598693"
     id="path3-5-26" /><path
     style="fill:none;stroke:#000000;stroke-width:0.202894;stroke-linecap:round;stroke-linejoin:miter;stroke-dasharray:none;stroke-opacity:1"
     d="m 54.424398,6.448129 c 0.07753,1.158285 -0.870752,1.72691 -0.870752,1.72691"
     id="path3-5-2-1" /><path
     style="fill:none;stroke:#24292f;stroke-width:0.264583;stroke-linecap:butt;stroke-linejoin:round;stroke-dasharray:none;stroke-opacity:1"
     d="M 51.817333,3.867931 C 50.137363,2.713866 47.960707,0.20121817 47.960707,0.20121817 48.734951,1.764319 50.750922,4.671394 50.750922,4.671394"
     id="path4-8" /><path
     style="fill:none;stroke:#24292f;stroke-width:0.202575px;stroke-linecap:butt;stroke-linejoin:miter;stroke-opacity:1"
     d="M 51.510557,3.721846 C 51.30604,4.3354 50.487971,4.24775 50.487971,4.24775"
     id="path5-7" /><path
     style="fill:none;stroke:#24292f;stroke-width:0.202575px;stroke-linecap:butt;stroke-linejoin:miter;stroke-opacity:1"
     d="m 50.94766,3.227113 c -0.321384,0.496686 -0.905719,0.36521 -0.905719,0.36521"
     id="path5-6-9" /><path
     style="fill:none;stroke:#24292f;stroke-width:0.202575px;stroke-linecap:butt;stroke-linejoin:miter;stroke-opacity:1"
     d="M 50.323711,2.618994 C 50.016935,2.911162 49.505643,2.808903 49.505643,2.808903"
     id="path5-6-5-2" /><path
     style="fill:none;stroke:#24292f;stroke-width:0.202575px;stroke-linecap:butt;stroke-linejoin:miter;stroke-opacity:1"
     d="m 49.771104,2.10069 c -0.248343,0.1753 -0.613551,0.116868 -0.613551,0.116868"
     id="path5-6-5-5-0" /><path
     style="fill:none;stroke:#24292f;stroke-width:0.202575px;stroke-linecap:butt;stroke-linejoin:miter;stroke-opacity:1"
     d="m 49.280974,1.560801 c -0.248343,0.175301 -0.482077,0.07304 -0.482077,0.07304"
     id="path5-6-5-5-2-2" /><path
     style="fill:none;stroke:#000000;stroke-width:0.202575px;stroke-linecap:butt;stroke-linejoin:miter;stroke-opacity:1"
     d="m 48.725855,1.0787231 c -0.151596,0.07855 -0.226897,0.03699 -0.233733,0.04382"
     id="path5-6-5-5-2-1-3" /><path
     style="fill:none;stroke:#24292f;stroke-width:0.264583;stroke-linecap:butt;stroke-linejoin:miter;stroke-dasharray:none;stroke-opacity:1"
     d="M 53.13436,3.50898 C 52.92776,3.054473 52.524905,2.765241 52.173691,2.589636 51.822486,2.414031 51.522922,2.352053 51.522922,2.352053 c 0,0 -0.258249,0.557804 0.526812,1.435829"
     id="path9-7" /><path
     style="fill:none;fill-opacity:1;stroke:none;stroke-width:0.264583;stroke-linecap:butt;stroke-linejoin:miter;stroke-dasharray:none;stroke-opacity:1"
     d="M 52.740056,3.565427 C 52.294501,2.970133 51.84377,2.816371 51.84377,2.816371 c 0,0 0.03836,0.178262 0.180361,0.338266 0.141996,0.160003 0.376656,0.323658 0.469788,0.498959 z"
     id="path10-5" /><path
     d="m 5.851782,4.8991376 q 0,1.051125 -0.768734,3.592654 -0.768733,2.5258384 -0.768733,3.2318174 0,0.690291 0.643226,0.690291 0.658914,0 1.788482,-0.956995 0.04706,-0.800109 0.266703,-1.9139884 0.658915,-3.498523 1.600221,-5.0673664 0.941306,-1.568843 2.19638,-1.568843 0.737358,0 1.09819,0.439276 0.376525,0.423588 0.376525,1.129567 0,2.2277584 -3.043557,5.9929828 -0.04706,0.61185 -0.04706,1.239389 0,1.302139 0.439276,1.302139 0.266703,0 0.454964,-0.06275 l 0.235327,0.596161 q -0.972683,0.690291 -1.945367,0.690291 -1.411959,0 -1.615909,-1.647287 -1.882612,1.647287 -3.21613,1.647287 -0.80011,0 -1.30214,-0.486341 -0.486341,-0.502031 -0.486341,-1.443337 0,-0.549095 0.360833,-1.772793 Q 2.494463,9.2919036 2.557215,9.0722666 0,8.0211406 0,6.1542166 0,4.8677646 1.192322,3.8950822 q 1.192321,-0.988372 2.651345,-0.988372 2.008121,0 2.008121,1.9924304 z M 2.85529,7.9426956 q 0.549096,-1.91399 0.549096,-2.855297 0,-0.9413044 -0.674604,-0.9413044 -0.658914,0 -1.208009,0.5961594 -0.549096,0.59616 -0.549096,1.317829 0,0.70598 0.549096,1.192321 0.549095,0.470654 1.333517,0.690292 z m 8.487445,-3.4985214 q 0,-0.423588 -0.313769,-0.423588 -0.69029,0 -1.584532,4.7692854 0.70598,-0.925619 1.30214,-2.21207 0.596161,-1.302141 0.596161,-2.1336274 z"
     style="font-size:19.7556px;font-family:'Noto Sans';-inkscape-font-specification:'Oleo Script Swash Caps';fill:#242424;fill-opacity:1;stroke-width:0.210113"
     id="path768" /><path
     d="m 11.999743,14.039956 h -0.259759 q 0,-0.642561 0.382803,-2.460874 0.396474,-1.8183134 0.396474,-2.0644004 0,-0.451161 -0.382802,-0.957007 l -0.123044,-0.164059 0.01367,-0.177728 q 0.738263,-0.205074 2.365174,-0.205074 0.177729,0.232417 0.191401,0.847635 1.189423,-0.915993 2.009713,-0.915993 0.492176,0 0.779277,0.341788 0.300775,0.341788 0.300775,0.861307 0,0.505845 -0.314445,1.7636274 -0.314446,1.257779 -0.314446,1.695268 0,0.423818 0.109374,0.423818 0.08203,0 0.574203,-0.25976 l 0.164058,-0.08203 0.246088,0.478503 q -0.123044,0.109372 -0.328117,0.27343 -0.205073,0.164059 -0.765606,0.45116 -0.546861,0.273432 -0.984349,0.273432 -0.998021,0 -0.998021,-1.134736 0,-0.478504 0.300773,-1.763626 0.314445,-1.2851244 0.314445,-1.6542554 0,-0.369131 -0.232416,-0.369131 -0.396474,0 -0.970679,0.341787 -0.04101,0.232417 -0.273429,1.2304374 -0.478505,2.146429 -0.478505,3.035078 -0.478502,0.191402 -1.722611,0.191402 z"
     style="font-size:19.7556px;font-family:'Noto Sans';-inkscape-font-specification:'Oleo Script Swash Caps';fill:#242424;fill-opacity:1;stroke-width:0.1831"
     id="path770" /><path
     d="m 21.405744,8.7900906 q 0,0.574204 -0.36913,1.9823704 -0.369132,1.394496 -0.369132,1.831985 0,0.423818 0.123044,0.423818 0.08204,0 0.628889,-0.25976 l 0.164059,-0.08203 0.232416,0.478503 q -0.123044,0.109372 -0.328116,0.27343 -0.205074,0.164059 -0.765606,0.45116 -0.560532,0.273432 -1.039036,0.273432 -0.478502,0 -0.751934,-0.287102 -0.27343,-0.300775 -0.27343,-0.792948 0,-0.505847 0.341788,-1.777299 0.341787,-1.285122 0.341787,-1.6679254 0,-0.574205 -0.355459,-1.080051 l -0.123044,-0.164064 0.01368,-0.177728 q 0.724593,-0.205073 2.351502,-0.205073 0.177731,0.205073 0.177731,0.779277 z m -1.558553,-2.269473 q -0.273431,-0.27343 -0.273431,-0.72459 0,-0.451161 0.369131,-0.79295 0.382802,-0.3417864 0.874977,-0.3417864 0.492175,0 0.765606,0.2734294 0.273431,0.273431 0.273431,0.724591 0,0.437488 -0.396475,0.779278 -0.382803,0.341788 -0.861307,0.341788 -0.478503,0 -0.751932,-0.25976 z"
     style="font-size:19.7556px;font-family:'Noto Sans';-inkscape-font-specification:'Oleo Script Swash Caps';fill:#242424;fill-opacity:1;stroke-width:0.1831"
     id="path772" /><path
     d="m 25.438833,8.6260316 q -0.54686,0 -0.874978,0.915994 -0.328116,0.9023194 -0.328116,1.9413544 0,1.640583 1.011693,1.640583 0.328117,0 0.697247,-0.150386 0.369132,-0.164058 0.587875,-0.314446 l 0.205074,-0.164059 0.314445,0.42382 q -0.109372,0.150385 -0.437487,0.396472 -0.328118,0.246089 -0.61522,0.410147 -0.287103,0.164057 -0.738262,0.300774 -0.45116,0.136714 -0.88865,0.136714 -1.066378,0 -1.599568,-0.697247 -0.533189,-0.697248 -0.533189,-1.872999 0,-1.6269114 0.88865,-2.6386044 0.902319,-1.011693 2.310486,-1.011693 0.915993,0 1.449182,0.423817 0.546862,0.410147 0.546862,1.025364 0,0.601548 -0.382804,1.0390374 -0.341787,0 -0.792948,-0.150387 -0.45116,-0.150387 -0.683576,-0.3691314 l 0.205073,-1.203094 q -0.123044,-0.08203 -0.341789,-0.08203 z"
     style="font-size:19.7556px;font-family:'Noto Sans';-inkscape-font-specification:'Oleo Script Swash Caps';fill:#242424;fill-opacity:1;stroke-width:0.1831"
     id="path774" /><path
     d="m 29.635981,14.162999 q -0.943335,0 -1.476522,-0.656233 -0.533191,-0.669904 -0.533191,-1.859327 0,-1.517539 0.80662,-2.6112604 0.820292,-1.093723 2.255803,-1.093723 l 0.492173,0.02734 q 0.232417,-0.123044 0.519519,-0.123044 1.08005,0 1.08005,2.037056 0.560532,-0.02734 1.134738,-0.150385 l 0.218743,-0.05468 0.08204,0.5331894 q -0.451161,0.1914 -1.216767,0.341787 l -0.27343,0.05469 q -0.259759,1.435511 -1.052707,2.50189 -0.792949,1.052706 -2.037059,1.052706 z m 0.738264,-1.17575 q 0.574205,0 1.025364,-0.738263 0.464832,-0.738262 0.642563,-1.558554 -1.462854,0 -1.462854,-1.0937214 0,-0.437489 0.17773,-0.820291 l 0.06835,-0.136716 q -0.05469,-0.02734 -0.136715,-0.02734 -0.08204,0 -0.123045,0.02734 -0.341788,0.218745 -0.642561,1.025365 -0.300774,0.8066184 -0.300774,1.8456554 0,1.476525 0.751936,1.476525 z"
     style="font-size:19.7556px;font-family:'Noto Sans';-inkscape-font-specification:'Oleo Script Swash Caps';fill:#242424;fill-opacity:1;stroke-width:0.1831"
     id="path776" /><path
     d="m 33.395658,14.039956 h -0.0957 q -0.02734,-0.109372 -0.02734,-0.492175 0,-0.396473 0.36913,-2.105414 0.369131,-1.7089414 0.369131,-1.9550284 0,-0.423818 -0.382802,-0.929664 l -0.12304,-0.164059 0.01367,-0.177728 q 0.738261,-0.205074 2.365172,-0.205074 0.16406,0.355459 0.16406,0.998022 0.150385,-0.246088 0.628889,-0.656235 0.478503,-0.410145 0.984349,-0.410145 0.738263,0 0.738263,1.285124 -0.06835,0.08203 -0.191403,0.218744 -0.109371,0.123045 -0.46483,0.35546 -0.341788,0.2324164 -0.669905,0.2871024 -0.01367,0 -0.232417,-0.3691324 -0.218742,-0.369131 -0.328114,-0.369131 -0.34179,0.123045 -0.601549,0.410146 -0.62889,2.8300044 -0.62889,3.6639674 0,0.300775 0.01367,0.423817 -0.478502,0.191403 -1.900342,0.191403 z"
     style="font-size:19.7556px;font-family:'Noto Sans';-inkscape-font-specification:'Oleo Script Swash Caps';fill:#242424;fill-opacity:1;stroke-width:0.1831"
     id="path778" /><path
     d="M 38.467799,14.039956 H 38.20804 q 0,-0.642561 0.382803,-2.460874 0.396474,-1.8183134 0.396474,-2.0644004 0,-0.451161 -0.382803,-0.957007 l -0.123042,-0.164059 0.01367,-0.177728 q 0.738262,-0.205074 2.365172,-0.205074 0.177731,0.232417 0.191402,0.847635 1.189425,-0.915993 2.009715,-0.915993 0.492174,0 0.779277,0.341788 0.300774,0.341788 0.300774,0.861307 0,0.505845 -0.314446,1.7636274 -0.314445,1.257779 -0.314445,1.695268 0,0.423818 0.109372,0.423818 0.08203,0 0.574204,-0.25976 l 0.16406,-0.08203 0.246086,0.478503 q -0.123043,0.109372 -0.328117,0.27343 -0.205072,0.164059 -0.765605,0.45116 -0.546862,0.273432 -0.984349,0.273432 -0.998021,0 -0.998021,-1.134736 0,-0.478504 0.300772,-1.763626 0.314445,-1.2851244 0.314445,-1.6542554 0,-0.369131 -0.232416,-0.369131 -0.396473,0 -0.970677,0.341787 -0.04101,0.232417 -0.273431,1.2304374 -0.478504,2.146429 -0.478504,3.035078 -0.478504,0.191402 -1.722611,0.191403 z"
     style="font-size:19.7556px;font-family:'Noto Sans';-inkscape-font-specification:'Oleo Script Swash Caps';fill:#242424;fill-opacity:1;stroke-width:0.1831"
     id="path780" /></svg>
