<?xml version="1.0" encoding="UTF-8" standalone="no"?>
<!-- Created with Inkscape (http://www.inkscape.org/) -->

<svg
   width="234"
   height="55"
   viewBox="0 0 61.912505 14.552086"
   version="1.1"
   id="svg5"
   xml:space="preserve"
   xmlns="http://www.w3.org/2000/svg"
   xmlns:svg="http://www.w3.org/2000/svg"><defs
     id="defs2" /><g
     id="text2-5-9"><path
       id="path1"
       style="-inkscape-font-specification:'Oleo Script Swash Caps';fill:#24292f;fill-opacity:1"
       d="M 3.4767904,3.001884 C 2.618346,3.001884 1.84283,3.2913067 1.1384318,3.8752157 0.43527212,4.448846 0.0956014,5.0991693 0.0956014,5.845638 c 0,0.5412536 0.18269782,1.0164148 0.55500488,1.4412557 0.37230712,0.4248408 0.93711862,0.7963511 1.69912112,1.109493 l 0.078031,0.033073 -0.023254,0.080099 c -0.038666,0.1353316 -0.169776,0.574865 -0.396875,1.3223993 -0.2165201,0.734286 -0.3240112,1.265802 -0.3240112,1.576131 0,0.550271 0.140744,0.956785 0.4123779,1.238168 l 0.00155,0.0021 c 0.2843729,0.274577 0.6472017,0.41031 1.109493,0.41031 0.765081,0 1.7208969,-0.480976 2.8478882,-1.467093 L 6.189286,11.474785 6.21099,11.652552 c 0.059856,0.48345 0.2072491,0.833863 0.4314982,1.062467 0.2242492,0.228603 0.5285793,0.343648 0.9358602,0.343648 0.5416003,0 1.0857287,-0.208531 1.6365926,-0.583943 L 9.064563,12.093835 c -0.1068607,0.02601 -0.2165883,0.04858 -0.3498495,0.04858 -0.089705,0 -0.1771527,-0.03737 -0.2418457,-0.101286 -0.064693,-0.06392 -0.110579,-0.150612 -0.146761,-0.257865 -0.072364,-0.214505 -0.10542,-0.516168 -0.10542,-0.914156 0,-0.38083 0.014317,-0.75766 0.042892,-1.12913 l 0.00207,-0.028939 0.019637,-0.023771 C 10.11502,7.4236702 11.017415,5.6265811 11.017415,4.3263509 c 0,-0.4088649 -0.106605,-0.7232532 -0.316259,-0.9591146 h -0.0021 v -0.00207 C 10.501632,3.1247867 10.202991,3.001884 9.777181,3.001884 9.0598723,3.001884 8.4309971,3.4447723 7.8729045,4.3749268 7.3162259,5.3027244 6.8336639,6.8232929 6.4373332,8.9276204 6.3054608,9.5964018 6.2250678,10.169922 6.1970378,10.646379 l -0.00155,0.04134 -0.031523,0.02687 c -0.6881699,0.583033 -1.2360987,0.886768 -1.679484,0.886768 -0.2109556,0 -0.3873913,-0.05832 -0.5059123,-0.185518 C 3.8600477,11.288645 3.808553,11.105963 3.8085531,10.883055 3.8085531,10.4228 4.0434118,9.4574478 4.5077352,7.9318136 4.9702894,6.4025547 5.1991659,5.3194979 5.1991659,4.7087565 5.1991659,4.1239257 5.0536277,3.7037166 4.7733521,3.4256307 4.4930765,3.1475447 4.0666002,3.001884 3.4767904,3.001884 Z M 20.322274,3.3848063 c -0.318609,0 -0.594053,0.108706 -0.843876,0.3317627 -0.239107,0.2219922 -0.3514,0.4667129 -0.3514,0.7524089 0,0.2930249 0.0851,0.512419 0.255798,0.6831624 0.16905,0.1599245 0.399438,0.2423625 0.712618,0.2423625 0.308519,1e-7 0.580197,-0.1067813 0.83044,-0.3302124 h 0.0021 v -0.00155 c 0.259191,-0.22344 0.378788,-0.4623352 0.378788,-0.7363892 0,-0.2930249 -0.08505,-0.5149995 -0.255799,-0.6857462 C 20.881845,3.4715383 20.645282,3.3848063 20.322274,3.3848063 Z M 9.976652,3.8204386 c 0.115997,0 0.223523,0.044594 0.288871,0.1328085 0.06534,0.088215 0.08992,0.2062546 0.08992,0.3457153 0,0.5241636 -0.184019,1.17662 -0.5467364,1.9688721 C 9.4468116,7.0487592 9.0499245,7.7225064 8.6191121,8.2873494 L 8.4490967,8.2108683 C 8.7191528,6.7705689 8.975506,5.6899033 9.2170085,4.9630046 9.3377597,4.5995553 9.4532797,4.3256301 9.5720256,4.1346313 9.6907716,3.9436326 9.8178599,3.8204386 9.976652,3.8204386 Z M 2.4685832,3.93361 c 0.2255199,-10e-8 0.4161833,0.085878 0.5353678,0.252181 0.1191838,0.1663032 0.1700155,0.3977896 0.1700155,0.692981 0,0.5861592 -0.1679424,1.4514076 -0.5002279,2.6096598 l -0.025321,0.091467 -0.091984,-0.025321 C 2.0719383,7.418919 1.657227,7.2038113 1.3146484,6.9101725 0.96641591,6.601738 0.78496501,6.210254 0.78496501,5.7598551 0.78496501,5.3005306 0.96280435,4.8777042 1.306897,4.5041178 1.6508772,4.1306538 2.0425457,3.93361 2.4685832,3.93361 Z M 31.619259,6.6915812 c -0.185112,2e-7 -0.347485,0.039213 -0.494027,0.1167888 L 31.101461,6.8202555 30.56816,6.7908 c -0.968277,5.234e-4 -1.712113,0.3630379 -2.263428,1.0981242 -0.545756,0.7400089 -0.818554,1.6207313 -0.818554,2.6541018 0,0.808154 0.179978,1.427058 0.531233,1.869136 0.351695,0.432856 0.828549,0.646472 1.459343,0.646472 0.834177,0 1.504249,-0.345272 2.038635,-1.054716 0.539539,-0.725585 0.89687,-1.575608 1.074353,-2.5564326 l 0.01189,-0.064596 0.347782,-0.068213 c 0.357493,-0.070222 0.900926,-0.2239263 1.155734,-0.3062033 -0.0079,-0.1445393 -0.02087,-0.2574371 -0.03352,-0.3905623 -0.377961,0.077386 -0.955227,0.1707343 -1.325303,0.1887863 l -0.09974,0.00362 v -0.099219 c 0,-0.6964714 -0.09517,-1.2117227 -0.269751,-1.5409912 C 32.202256,6.8408365 31.963108,6.6915812 31.619259,6.6915812 Z M 15.937528,6.7908 c -0.532306,0 -1.212586,0.3043724 -2.027266,0.931726 L 13.759884,7.8377645 13.75575,7.648112 c -0.0088,-0.3941518 -0.07724,-0.6414665 -0.167949,-0.7792806 -1.04689,0.00363 -1.817154,0.070841 -2.300635,0.197404 l -0.0057,0.07028 0.10542,0.1405599 c 0.273121,0.3609105 0.415995,0.7119959 0.415995,1.0510986 0,0.1106708 -0.03501,0.3230731 -0.103869,0.6816122 -0.06877,0.3580864 -0.171484,0.8520535 -0.308509,1.4805299 v 0.0015 c -0.254265,1.208095 -0.371555,1.999506 -0.380855,2.439644 h 0.160197 c 0.833165,0 1.393747,-0.07166 1.705322,-0.187585 0.0086,-0.63693 0.163313,-1.638953 0.486275,-3.0876668 v -0.00207 c 0.160767,-0.6902402 0.256113,-1.11767 0.283203,-1.2711874 l 0.0078,-0.043408 0.03721,-0.021187 c 0.405637,-0.2414506 0.755095,-0.3689697 1.056783,-0.3689697 0.105578,1e-7 0.206052,0.052522 0.261482,0.1405599 0.05543,0.088038 0.07442,0.2002629 0.07442,0.3379638 0,0.2821354 -0.112571,0.8481423 -0.330213,1.7378792 v 0.0021 c -0.207115,0.88531 -0.308508,1.497766 -0.308508,1.808675 0,0.378714 0.08218,0.647375 0.234094,0.820105 0.15192,0.172729 0.379604,0.261999 0.706934,0.261999 0.282963,0 0.609365,-0.08868 0.978751,-0.273368 0.385563,-0.197483 0.64716,-0.353292 0.777214,-0.457336 0.117516,-0.09401 0.20369,-0.166995 0.28112,-0.234095 l -0.177251,-0.345715 -0.0863,0.04289 c -0.170344,0.08987 -0.306195,0.156918 -0.408244,0.203088 -0.05122,0.02317 -0.09258,0.04208 -0.128674,0.05478 -0.03609,0.01269 -0.06253,0.02119 -0.101803,0.02119 -0.04961,0 -0.09835,-0.02958 -0.125057,-0.06408 -0.0267,-0.0345 -0.04133,-0.07323 -0.05271,-0.117306 -0.02275,-0.08817 -0.03101,-0.202729 -0.03101,-0.353467 0,-0.325531 0.111974,-0.908329 0.330213,-1.7812869 0.216884,-0.8675345 0.321944,-1.4782978 0.321944,-1.8086751 0,-0.3411906 -0.09443,-0.6133845 -0.286804,-0.8319906 h -0.0021 v -0.00207 C 16.492433,6.8951396 16.256137,6.7908 15.937528,6.7908 Z m 9.181869,0 c -0.951758,0 -1.718371,0.3377647 -2.326473,1.019576 -0.597572,0.6809924 -0.898136,1.5679029 -0.898136,2.675806 0,0.799309 0.179966,1.424653 0.5333,1.886706 0.350422,0.458243 0.868679,0.685746 1.58595,0.685746 0.292863,0 0.590454,-0.04687 0.894519,-0.139009 0.307482,-0.09318 0.555748,-0.193769 0.745691,-0.302307 0.194456,-0.111119 0.404364,-0.251727 0.628902,-0.42013 0.198764,-0.149073 0.31203,-0.260602 0.38499,-0.347782 l -0.217041,-0.290938 -0.138493,0.111104 -0.0036,0.0021 c -0.158652,0.109073 -0.366347,0.219264 -0.625284,0.334347 h -0.0021 v 0.0021 c -0.264568,0.107789 -0.518053,0.161747 -0.759644,0.161747 -0.375755,0 -0.679305,-0.162839 -0.869198,-0.470772 -0.189893,-0.307933 -0.277502,-0.748571 -0.277502,-1.326018 0,-0.729065 0.116706,-1.4135121 0.347782,-2.0489703 h -0.0021 c 0.116362,-0.3248447 0.255087,-0.5729116 0.42013,-0.7456909 0.165042,-0.1727791 0.362501,-0.2676839 0.578259,-0.2676839 0.16326,0 0.301465,0.0301 0.408244,0.1012858 l 0.05064,0.03359 -0.21084,1.2459187 c 0.146419,0.1277989 0.349162,0.2464403 0.634586,0.3415813 0.283649,0.09455 0.524034,0.1340099 0.73639,0.1405599 0.229805,-0.2782335 0.359151,-0.5931402 0.359151,-0.9725505 0,-0.3976014 -0.171027,-0.7178984 -0.531234,-0.9880534 v -0.00207 h -0.0021 C 26.21603,6.9341234 25.738649,6.7908 25.119397,6.7908 Z m 12.687081,0 c -0.324384,0 -0.640532,0.1294883 -0.959115,0.4025594 -0.327751,0.2809295 -0.541646,0.507827 -0.634586,0.659908 l -0.1757,0.287321 V 7.8026245 c 0,-0.4092199 -0.05811,-0.7086661 -0.150379,-0.9332764 -1.039699,0.00427 -1.809854,0.070759 -2.290816,0.1968873 l -0.0062,0.07028 0.107487,0.1410767 c 0.272624,0.3602535 0.415995,0.7012791 0.415995,1.0231933 -0.0415,0.3104906 -0.08643,0.6196733 -0.154509,0.9255253 -0.06159,0.3127501 -0.127687,0.6475637 -0.230477,1.1234463 -0.255136,1.181185 -0.380855,1.920873 -0.380855,2.165758 0,0.223779 0.01113,0.342365 0.0217,0.415996 h 0.0098 c 0.94813,0 1.561356,-0.07414 1.874821,-0.187585 -0.0063,-0.09211 -0.01137,-0.191058 -0.01137,-0.357085 10e-7,-0.60103 0.220641,-1.864146 0.656291,-3.8245724 l 0.0057,-0.023254 0.0155,-0.019637 c 0.189146,-0.2090568 0.412564,-0.3606032 0.664042,-0.4511352 l 0.01602,-0.00568 h 0.0155 c 0.0913,0 0.149172,0.056972 0.212907,0.1286743 0.06374,0.071702 0.131312,0.1700407 0.208773,0.3007568 0.07547,0.1273545 0.134832,0.2228179 0.174149,0.2852539 0.009,0.01425 0.01212,0.020791 0.01912,0.031523 0.196245,-0.040507 0.399046,-0.1166317 0.609782,-0.2599324 V 8.546768 C 38.08337,8.387683 38.243169,8.2645154 38.304639,8.1953654 v -0.00207 C 38.377508,8.1123317 38.428307,8.0522665 38.472587,8.0000285 38.46849,7.5861205 38.40931,7.2702227 38.298954,7.0781209 38.184858,6.8795085 38.034362,6.7908 37.806478,6.7908 Z m 5.60741,0 c -0.532305,0 -1.214566,0.3042606 -2.029334,0.931726 l -0.148311,0.1152385 -0.0036,-0.1896525 c -0.0088,-0.3941629 -0.0793,-0.64147 -0.170015,-0.7792806 -1.046424,0.00374 -1.817639,0.070742 -2.300635,0.197404 l -0.0062,0.07028 0.107487,0.1405599 c 0.273122,0.3609105 0.415995,0.7119959 0.415995,1.0510986 0,0.1106708 -0.03656,0.3230731 -0.10542,0.6816122 -0.06877,0.3580864 -0.171483,0.8520535 -0.308508,1.4805299 v 0.0015 c -0.254295,1.208237 -0.371555,1.999547 -0.380855,2.439644 h 0.160197 c 0.833191,0 1.395304,-0.07166 1.706872,-0.187585 0.0086,-0.63693 0.161248,-1.638957 0.484208,-3.0876668 h 0.0021 v -0.00207 c 0.16075,-0.6902931 0.25403,-1.1177229 0.28112,-1.2712403 l 0.0083,-0.043408 0.03669,-0.021187 c 0.405637,-0.2414506 0.755095,-0.3689697 1.056783,-0.3689697 0.105578,1e-7 0.206569,0.052522 0.261999,0.1405599 0.05543,0.088038 0.0739,0.2002629 0.0739,0.3379638 0,0.2821353 -0.110505,0.848143 -0.328146,1.7378791 v 0.0021 c -0.207115,0.88531 -0.310575,1.497766 -0.310575,1.808675 0,0.378714 0.08476,0.647375 0.236678,0.820105 0.151919,0.172729 0.377536,0.261999 0.704866,0.261999 0.282441,0 0.610204,-0.08937 0.978752,-0.273368 0.385562,-0.197483 0.649227,-0.353292 0.779281,-0.457336 0.117436,-0.09395 0.201642,-0.167025 0.279052,-0.234095 l -0.175699,-0.345715 -0.08785,0.04289 c -0.170341,0.08987 -0.304129,0.156918 -0.406177,0.203088 -0.05122,0.02317 -0.09517,0.04208 -0.131258,0.05478 -0.03609,0.01269 -0.06202,0.02119 -0.101286,0.02119 -0.04961,0 -0.09628,-0.02958 -0.12299,-0.06408 -0.0267,-0.0345 -0.04133,-0.07323 -0.05271,-0.117306 -0.02275,-0.08817 -0.03152,-0.202729 -0.03152,-0.353467 0,-0.325531 0.109907,-0.908329 0.328146,-1.7812868 0.216884,-0.8675345 0.324528,-1.4782978 0.324528,-1.8086751 0,-0.3411906 -0.09701,-0.6133845 -0.289388,-0.8319906 l -0.0021,-0.00207 C 43.966725,6.8951396 43.732498,6.7908 43.413888,6.7908 Z M 20.685559,6.869348 c -1.048432,0.00355 -1.814783,0.070302 -2.289266,0.1968873 l -0.0057,0.07028 0.107487,0.142627 v 0.00207 c 0.25572,0.3639098 0.386539,0.7586522 0.386539,1.1756388 0,0.2932017 -0.119948,0.8643343 -0.357084,1.7559649 -0.235713,0.876852 -0.351916,1.491896 -0.351916,1.820561 0,0.323009 0.08806,0.568519 0.259932,0.757577 0.170009,0.177788 0.397613,0.267683 0.709001,0.267683 0.312494,0 0.657524,-0.08947 1.035079,-0.273368 0.385563,-0.197483 0.649226,-0.353292 0.77928,-0.457336 0.118322,-0.09466 0.20343,-0.168792 0.28112,-0.236162 l -0.165881,-0.343648 -0.08578,0.04289 c -0.190059,0.09028 -0.339634,0.159105 -0.451135,0.205155 -0.05575,0.02302 -0.10258,0.04027 -0.14056,0.05271 -0.03798,0.01249 -0.06253,0.02119 -0.101803,0.02119 -0.04856,0 -0.09742,-0.02635 -0.127124,-0.06046 -0.02971,-0.03411 -0.04745,-0.07198 -0.06046,-0.116789 -0.02606,-0.08962 -0.03514,-0.206352 -0.03514,-0.357601 0,-0.329491 0.130971,-0.958547 0.387056,-1.9259804 0.254653,-0.9714525 0.378789,-1.6559397 0.378789,-2.0329509 0,-0.3673402 -0.06592,-0.5898609 -0.152446,-0.7069336 z m 9.884668,0.4273641 c 0.06733,0 0.129075,0.011856 0.183968,0.039274 l 0.08578,0.040824 -0.113171,0.2247925 -0.0021,0.00362 c -0.115978,0.2512614 -0.17415,0.5203183 -0.17415,0.8087362 0,0.3572683 0.113342,0.604631 0.342098,0.7756633 0.228756,0.1710319 0.587765,0.2635498 1.082104,0.2635498 h 0.116789 l -0.02325,0.1152384 c -0.125378,0.5786707 -0.352314,1.1287567 -0.679545,1.6484777 -0.321579,0.526219 -0.708594,0.810287 -1.1467,0.810287 -0.291289,0 -0.528007,-0.155278 -0.669727,-0.433565 -0.141719,-0.278287 -0.205155,-0.674231 -0.205155,-1.193209 1e-6,-0.728232 0.10551,-1.3784999 0.318327,-1.9492352 0.210851,-0.565465 0.43352,-0.9358885 0.703316,-1.109493 0.05271,-0.035142 0.114054,-0.044958 0.181384,-0.044958 z" /></g><path
     style="fill:none;fill-opacity:1;stroke:none;stroke-width:0.202575px;stroke-linecap:butt;stroke-linejoin:miter;stroke-opacity:1"
     d="M 60.175235,12.034038 59.181857,11.113707 58.042405,7.782987 C 57.501894,5.971543 55.515149,4.350009 55.515149,4.350009 54.229605,3.400462 52.797985,3.546545 52.797985,3.546545 52.681118,3.203248 51.92861,3.832083 51.453233,3.86498 50.977856,3.89788 50.77961,3.334839 50.77961,3.334839 51.298208,2.567897 52.608068,2.085703 54.010479,2.129529 l -0.934935,0.847288 c 1.168677,-0.335993 1.650745,-0.335993 1.650745,-0.335993 0.584335,0.02921 2.541872,0.949548 2.541872,0.949548 l 0.920327,-0.131477 -1.300152,0.774245 1.066419,0.160695 0.745026,0.613552 0.861901,0.04382 c 0,0 -0.233733,0.496686 -1.548494,0.219126 0,0 1.563103,0.964156 1.753012,2.264306 0.525901,0.555118 1.490054,0.628161 1.490054,0.628161 0,0 -0.540509,0.496686 -1.51927,0.496686 l 0.759635,0.598945 0.321384,1.49006 -0.642768,-0.671987 0.467467,1.329365 0.628161,0.759638 z"
     id="path8-7" /><path
     style="fill:none;stroke:#24292f;stroke-width:0.264583;stroke-linecap:round;stroke-linejoin:round;stroke-dasharray:none;stroke-opacity:1"
     d="m 60.160626,11.975603 1.241712,0.248344 c 0,0 -0.657378,-0.409035 -0.818069,-1.051806 -0.144759,-0.855823 -0.349927,-0.879697 -0.920328,-1.475451 0.438252,0.1022592 1.124845,1.066415 1.124845,1.066415 0,0 -0.02924,-1.300149 -0.467468,-1.709186 0,0 -1.826055,-0.8692 -2.30813,-1.380495 1.022586,0.737724 1.869879,0.978764 1.869879,0.978764 0.788853,0 1.402404,-0.474773 1.402404,-0.474773 0,0 -1.241712,-0.10226 -1.563095,-0.847289 0,0 -0.409043,-1.650752 -2.585698,-2.439606 1.986746,0.978765 2.512654,0.175302 2.512654,0.175302 0,0 -0.438257,0.08765 -0.934942,-0.04382 -0.721277,-0.689681 -0.991899,-0.74838 -1.928305,-0.803463 0,0 1.022586,-0.248343 1.402403,-0.745028 L 57.341204,3.604986 C 56.65461,3.444293 55.544365,2.699264 54.653255,2.611614 c 0,0 -0.77425,0.0146 -1.650754,0.45286 0.262952,-0.36521 1.197887,-0.949547 1.197887,-0.949547 -0.878952,-0.0076 -2.037875,0.123092 -2.606652,0.402251 -0.366702,0.0878 -0.805123,0.831698 -0.805123,0.831698"
     id="path7-0" /><path
     style="fill:none;fill-opacity:1;stroke:none;stroke-width:0.202575px;stroke-linecap:butt;stroke-linejoin:miter;stroke-opacity:1"
     d="M 52.761586,3.441836 C 52.353563,2.682604 51.144988,2.341722 51.144988,2.341722 c 0,0 -0.170438,0.418354 0.444177,1.482314 z"
     id="path11-9" /><path
     style="fill:none;fill-opacity:1;stroke:none;stroke-width:0.202575px;stroke-linecap:butt;stroke-linejoin:miter;stroke-opacity:1"
     d="M 51.410182,3.897148 C 48.897534,1.808144 47.641207,0.25965217 47.641207,0.25965217 48.634576,2.100312 50.37298,4.671394 50.37298,4.671394 c 1.007977,0.08765 1.037202,-0.774246 1.037202,-0.774246 z"
     id="path6-3" /><path
     style="fill:none;fill-opacity:1;stroke:#24292f;stroke-width:0.264583;stroke-linecap:round;stroke-linejoin:miter;stroke-dasharray:none;stroke-opacity:1"
     d="m 51.147231,14.21055 c 0,0 3.278338,-2.102736 2.124269,-6.076227 -1.051801,0.613554 -2.518702,0.568996 -2.518702,0.568996 -0.584335,0.08766 -1.237391,0.8052527 -1.380491,0.891113 -0.927631,0.496686 -1.570408,-0.46747 -1.570408,-0.46747 0,0 -0.496684,-0.774247 -0.146083,-1.402408 0,0 1.811445,-1.343975 2.731772,-3.082377 0,0 0.964159,0.233735 1.110244,-0.788855 l 1.300145,-0.36521 c 6.266922,0.530736 5.181821,8.040548 7.479516,8.531317 l 0.379917,2.191121"
     id="path2-6" /><circle
     style="fill:none;fill-opacity:1;stroke:#24292f;stroke-width:0.185208;stroke-linecap:round;stroke-linejoin:round;stroke-dasharray:none;stroke-opacity:1"
     id="path1-0"
     cx="-48.291298"
     cy="8.3892393"
     r="0.21432349"
     transform="scale(-1,1)" /><path
     style="fill:none;stroke:#24292f;stroke-width:0.264583;stroke-linecap:round;stroke-linejoin:miter;stroke-dasharray:none;stroke-opacity:1"
     d="m 51.548962,5.971543 c -0.584335,0.650075 -1.01529,0.08765 -1.01529,0.08765"
     id="path3-6" /><path
     style="fill:none;stroke:#24292f;stroke-width:0.264583;stroke-linecap:round;stroke-linejoin:miter;stroke-dasharray:none;stroke-opacity:1"
     d="M 49.422403,8.903966 C 49.086731,9.711041 48.346667,9.598693 48.346667,9.598693"
     id="path3-5-26" /><path
     style="fill:none;stroke:#000000;stroke-width:0.202894;stroke-linecap:round;stroke-linejoin:miter;stroke-dasharray:none;stroke-opacity:1"
     d="m 54.046464,6.448129 c 0.07753,1.158285 -0.870752,1.72691 -0.870752,1.72691"
     id="path3-5-2-1" /><path
     style="fill:none;stroke:#24292f;stroke-width:0.264583;stroke-linecap:butt;stroke-linejoin:round;stroke-dasharray:none;stroke-opacity:1"
     d="M 51.439399,3.867931 C 49.759429,2.713866 47.582773,0.20121817 47.582773,0.20121817 48.357017,1.764319 50.372988,4.671394 50.372988,4.671394"
     id="path4-8" /><path
     style="fill:none;stroke:#24292f;stroke-width:0.202575px;stroke-linecap:butt;stroke-linejoin:miter;stroke-opacity:1"
     d="M 51.132623,3.721846 C 50.928106,4.3354 50.110037,4.24775 50.110037,4.24775"
     id="path5-7" /><path
     style="fill:none;stroke:#24292f;stroke-width:0.202575px;stroke-linecap:butt;stroke-linejoin:miter;stroke-opacity:1"
     d="m 50.569726,3.227113 c -0.321384,0.496686 -0.905719,0.36521 -0.905719,0.36521"
     id="path5-6-9" /><path
     style="fill:none;stroke:#24292f;stroke-width:0.202575px;stroke-linecap:butt;stroke-linejoin:miter;stroke-opacity:1"
     d="M 49.945777,2.618994 C 49.639001,2.911162 49.127709,2.808903 49.127709,2.808903"
     id="path5-6-5-2" /><path
     style="fill:none;stroke:#24292f;stroke-width:0.202575px;stroke-linecap:butt;stroke-linejoin:miter;stroke-opacity:1"
     d="m 49.39317,2.10069 c -0.248343,0.1753 -0.613551,0.116868 -0.613551,0.116868"
     id="path5-6-5-5-0" /><path
     style="fill:none;stroke:#24292f;stroke-width:0.202575px;stroke-linecap:butt;stroke-linejoin:miter;stroke-opacity:1"
     d="m 48.90304,1.560801 c -0.248343,0.175301 -0.482077,0.07304 -0.482077,0.07304"
     id="path5-6-5-5-2-2" /><path
     style="fill:none;stroke:#000000;stroke-width:0.202575px;stroke-linecap:butt;stroke-linejoin:miter;stroke-opacity:1"
     d="m 48.347921,1.0787231 c -0.151596,0.07855 -0.226897,0.03699 -0.233733,0.04382"
     id="path5-6-5-5-2-1-3" /><path
     style="fill:none;stroke:#24292f;stroke-width:0.264583;stroke-linecap:butt;stroke-linejoin:miter;stroke-dasharray:none;stroke-opacity:1"
     d="M 52.756426,3.50898 C 52.549826,3.054473 52.146971,2.765241 51.795757,2.589636 51.444552,2.414031 51.144988,2.352053 51.144988,2.352053 c 0,0 -0.258249,0.557804 0.526812,1.435829"
     id="path9-7" /><path
     style="fill:none;fill-opacity:1;stroke:none;stroke-width:0.264583;stroke-linecap:butt;stroke-linejoin:miter;stroke-dasharray:none;stroke-opacity:1"
     d="M 52.362122,3.565427 C 51.916567,2.970133 51.465836,2.816371 51.465836,2.816371 c 0,0 0.03836,0.178262 0.180361,0.338266 0.141996,0.160003 0.376656,0.323658 0.469788,0.498959 z"
     id="path10-5" /></svg>
