<?xml version="1.0" encoding="UTF-8" standalone="no"?>
<!-- Created with Inkscape (http://www.inkscape.org/) -->

<svg
   width="234"
   height="58"
   viewBox="0 0 61.912505 15.345833"
   version="1.1"
   id="svg5"
   xml:space="preserve"
   sodipodi:docname="unicorn-dark.svg"
   inkscape:version="1.2.2 (b0a8486541, 2022-12-01)"
   xmlns:inkscape="http://www.inkscape.org/namespaces/inkscape"
   xmlns:sodipodi="http://sodipodi.sourceforge.net/DTD/sodipodi-0.dtd"
   xmlns="http://www.w3.org/2000/svg"
   xmlns:svg="http://www.w3.org/2000/svg"><sodipodi:namedview
     id="namedview9135"
     pagecolor="#ffffff"
     bordercolor="#000000"
     borderopacity="0.25"
     inkscape:showpageshadow="2"
     inkscape:pageopacity="0.0"
     inkscape:pagecheckerboard="0"
     inkscape:deskcolor="#d1d1d1"
     showgrid="false"
     inkscape:zoom="4.2909091"
     inkscape:cx="102.30932"
     inkscape:cy="27.616525"
     inkscape:window-width="2494"
     inkscape:window-height="1531"
     inkscape:window-x="1746"
     inkscape:window-y="32"
     inkscape:window-maximized="1"
     inkscape:current-layer="svg5" /><defs
     id="defs2" /><path
     id="path8-7"
     style="fill:#f0f6fc;fill-opacity:1;stroke:none;stroke-width:0.203405px;stroke-linecap:butt;stroke-linejoin:miter;stroke-opacity:1"
     d="m 51.867843,2.2972335 c 0.273688,0.1118671 1.095009,0.4797508 1.359658,1.0327939 4.793449,0.3319407 5.395122,5.729413 6.262296,7.5548556 0.190988,0.402865 0.340347,0.942334 0.909958,1.151175 0.421046,0.123074 1.073484,0.211957 1.073484,0.211957 0.275641,0.04582 0.516615,-0.02891 0.415914,-0.08793 0,0 -0.821404,-0.47402 -0.969944,-1.065187 -1.04e-4,-4.19e-4 1.06e-4,-0.0011 0,-0.0015 -0.05475,-0.319928 -0.144455,-0.479003 -0.2367,-0.650829 0.115259,0.143396 0.260558,0.323924 0.260558,0.323924 0.0585,0.08124 0.214298,0.248899 0.211995,0.148821 0,0 -0.03428,-0.543625 -0.09794,-0.9293692 -2.52e-4,-0.0015 -0.199606,-0.9339171 -0.456251,-1.0873254 0,0 -0.28789,-0.1486174 -0.434259,-0.2214159 0.804165,-0.022331 1.420196,-0.4860738 1.420196,-0.4860731 0.07234,-0.056825 0.267294,-0.2003236 0.175711,-0.2090134 0,0 -0.529717,0.00244 -0.868666,-0.1123011 -0.33813,-0.1145006 -0.700473,-0.3181573 -0.844285,-0.6485841 -0.01045,-0.039728 -0.122558,-0.4474374 -0.4898,-0.9490342 -0.217769,-0.2974397 -0.557734,-0.6171688 -0.9837,-0.9199589 0.341163,0.06461 0.607707,0.0566 0.812978,0.014165 0.205271,-0.042435 0.349145,-0.1185154 0.44097,-0.1871229 0.09182,-0.068607 0.138291,-0.136801 0.138291,-0.136801 0.05128,-0.076047 0.18535,-0.2491097 0.09567,-0.2298432 0,0 -0.896385,0.170072 -1.201565,-0.091911 -0.564576,-0.5327389 -0.846837,-0.5508802 -1.432943,-0.6194524 0.08061,-0.02724 0.08138,-0.019922 0.177432,-0.059268 0.311935,-0.1277813 0.676514,-0.3151588 0.88902,-0.5930529 0.05408,-0.07254 0.149554,-0.2018002 0.05993,-0.1892578 0,0 -0.774096,0.2010559 -1.110933,0.1038912 C 57.123065,3.2599455 56.808759,3.1179796 56.334697,2.9010054 55.855736,2.6817889 55.398445,2.4150572 54.875362,2.4205243 c -0.524162,0.030888 -0.85599,0.2128481 -1.275194,0.3451711 0.128719,-0.1122593 0.224253,-0.2179999 0.367908,-0.3213148 0.264696,-0.1903638 0.497255,-0.3351065 0.497255,-0.3351065 0.08476,-0.05462 0.312805,-0.1951668 0.211988,-0.1966565 -0.948985,0.017292 -1.91411,0.034368 -2.809476,0.3846159 z m -0.65256,0.465107 c -0.01437,0.017615 -0.0302,0.035086 -0.04398,0.052558 -0.160974,0.2039568 -0.18902,0.3573726 -0.18902,0.3573726 0.224002,0.1454535 0.63357,0.7205326 0.678715,0.6374679 -0.342491,-0.3926424 -0.390654,-0.7976822 -0.44571,-1.0473988 z" /><path
     id="path11-9"
     style="fill:#f0f6fc;fill-opacity:1;stroke:none;stroke-width:0.203405px;stroke-linecap:butt;stroke-linejoin:miter;stroke-opacity:1"
     d="m 51.343137,2.2509209 c 0,0 -0.151888,0.4330421 0.465248,1.5013654 0,0 0.197693,-0.1028226 0.502142,-0.1935094 C 52.203638,3.3915561 51.985672,3.209595 51.853066,3.0601717 51.710477,2.8995125 51.671906,2.720592 51.671906,2.720592 c 0,0 0.457748,0.1831673 0.89834,0.7576699 0,0 0.195058,-0.077152 0.428254,-0.1030627 C 52.588803,2.6128525 51.343137,2.2509209 51.343137,2.2509209 Z" /><path
     id="path6-3"
     style="fill:#f0f6fc;fill-opacity:1;stroke:none;stroke-width:0.203405px;stroke-linecap:butt;stroke-linejoin:miter;stroke-opacity:1"
     d="m 47.755744,5.9980623e-4 c -0.01639,0.001679004 -0.03213,0.007300004 -0.04584,0.0164012038 -0.04279,0.0281578 -0.05795,0.0837303 -0.03542,0.12971879 0.0036,0.007461 0.01041,0.0137265 0.01417,0.0212468 0.05578,0.11184232 0.118947,0.23171026 0.186004,0.35560817 0.0032,2.4002e-4 0.0053,4.9813e-4 0.0086,7.4006e-4 0.02963,0.002192 0.06971,0.004465 0.117045,0.005591 0.077,0.00184 0.173342,-8.8948e-4 0.273229,-0.0160281 -0.263526,-0.2884788 -0.429817,-0.47861724 -0.429817,-0.47861724 -0.02184,-0.0253111 -0.05473,-0.0382714 -0.08797,-0.0346666038 z m 0.705252,0.71643487377 -0.06933,0.0145373 c -0.143257,0.0305399 -0.278647,0.0357478 -0.383191,0.03392 0.06045,0.10762308 0.123996,0.21831998 0.189732,0.33100642 l 0.05815,0.019384 c 0,0 0.268889,0.087905 0.524465,-0.05815 C 48.666165,0.93682636 48.558581,0.82239616 48.460998,0.71703472 Z m 0.480109,0.50769202 -0.04212,0.024975 c -0.200289,0.1164741 -0.405055,0.1258245 -0.543477,0.112572 0.07097,0.1188517 0.146201,0.2405908 0.220298,0.3615722 l 0.0059,7.4e-4 c 0,0 0.461583,0.038532 0.761164,-0.088342 C 49.203343,1.4953846 49.06746,1.356464 48.941041,1.2247221 Z m 0.576652,0.587089 -0.04138,0.019757 c -0.256668,0.1245326 -0.565584,0.140372 -0.751847,0.1360556 0.08237,0.1325921 0.1658,0.2641749 0.249001,0.3954929 0.07091,0.00872 0.61144,0.066107 0.914367,-0.1681124 l 0.01267,-0.010065 C 49.770423,2.0601805 49.641884,1.9352352 49.517757,1.8118157 Z m 0.549813,0.5322939 -0.04026,0.031311 c -0.287034,0.2219346 -0.666707,0.2439343 -0.898336,0.2322262 0.127055,0.1984404 0.250851,0.388948 0.371638,0.5736698 l 0.05219,0.010065 c 0,0 0.657598,0.1212139 1.011284,-0.329888 l 0.02982,-0.038022 C 50.416902,2.6676255 50.240558,2.5069761 50.06757,2.3441096 Z m 0.699288,0.629583 -0.02236,0.028703 c -0.324858,0.414331 -0.826035,0.445441 -1.078381,0.4312774 0.105589,0.160178 0.202373,0.3051758 0.294849,0.4435783 l 0.0973,0.00858 c 0,0 0.232916,0.022441 0.491664,-0.029448 0.258747,-0.051888 0.522166,-0.1703059 0.628463,-0.4409689 l 0.0302,-0.077905 C 51.062394,3.2221482 50.914751,3.1004733 50.766858,2.9736926 Z m 0.629584,0.5080648 -0.0067,0.016774 c -0.144683,0.3684432 -0.499226,0.5209014 -0.795816,0.580379 -0.194832,0.039072 -0.372387,0.041394 -0.47228,0.038394 0.247505,0.3677169 0.383051,0.5360726 0.383051,0.5360726 0.33978,0.035697 1.039716,0.016975 1.156277,-0.8335307 C 51.50848,3.7373173 51.457226,3.6276869 51.39648,3.4817569 Z" /><path
     id="path2-6"
     style="fill:#f0f6fc;fill-opacity:1;stroke:none;stroke-width:0.203405px;stroke-linecap:butt;stroke-linejoin:miter;stroke-opacity:1"
     d="m 53.168674,3.5436572 c -0.518213,0 -1.337776,0.4121344 -1.337776,0.4121344 -0.146684,1.0267827 -1.2965,0.8828834 -1.2965,0.8828834 -0.924101,1.7455316 -2.600007,3.0106827 -2.600007,3.0106827 -0.352038,0.6307379 0.146493,1.4082674 0.146493,1.4082674 0,0 0.163071,0.3928176 0.517012,0.3824466 0,0 0.174777,0.022027 0.391765,-0.0466 0.216989,-0.068627 0.46684,-0.220798 0.623991,-0.5986437 0.02151,-0.052399 0.08163,-0.077182 0.133819,-0.055169 0.05163,0.02166 0.07611,0.080926 0.05479,0.1327016 -0.179897,0.4325377 -0.490352,0.6333365 -0.75073,0.7156886 -0.06854,0.02168 -0.134158,0.035158 -0.19383,0.043985 0.229035,0.06289 0.499503,0.05595 0.800304,-0.1051166 0,0 0.79917,-0.8066021 1.385901,-0.8946122 0,0 1.720251,-0.093961 2.435953,-0.6113173 0,0 0.844105,-0.5412374 0.770112,-1.6468316 -0.0037,-0.05609 0.0386,-0.104634 0.09468,-0.1084714 0.05609,-0.00375 0.104636,0.038598 0.108473,0.094679 0.06912,1.0327657 -0.638536,1.6252422 -0.858454,1.7836323 1.088737,3.9353726 -2.154523,6.0181266 -2.154523,6.0181266 h 9.549239 L 60.403315,12.259075 C 59.249757,12.012684 58.937963,9.8689718 58.134547,7.7790028 57.732838,6.7340181 57.11268,5.6587451 56.280674,4.8553657 c -0.832005,-0.8033794 -1.90177,-1.302477 -3.112,-1.3117085 z m -1.330421,2.443044 c 0.02695,-0.00107 0.05322,0.00858 0.07306,0.026841 0.04213,0.037349 0.04597,0.101794 0.0086,0.1438832 -0.311455,0.3464911 -0.622901,0.3875627 -0.838329,0.3168419 -0.215427,-0.070719 -0.338089,-0.2352088 -0.338089,-0.2352088 -0.03407,-0.044418 -0.02591,-0.1080116 0.01826,-0.1423924 0.04467,-0.035093 0.109403,-0.026877 0.143882,0.018264 0,0 0.09169,0.1177894 0.239309,0.1662488 0.147617,0.048459 0.347598,0.045696 0.622874,-0.2605556 0.01804,-0.02023 0.04339,-0.032438 0.07045,-0.033923 z m -3.265705,2.3148076 c 0.118903,6.78e-5 0.215219,0.096551 0.21508,0.2154529 -6.8e-5,0.1187564 -0.09632,0.2150117 -0.21508,0.2150795 -0.118902,1.386e-4 -0.215384,-0.096176 -0.215452,-0.2150795 -1.39e-4,-0.1190483 0.0964,-0.2155915 0.215452,-0.2154529 z" /><path
     d="m 5.851782,4.8641786 q 0,1.051125 -0.768734,3.592654 -0.768733,2.5258384 -0.768733,3.2318174 0,0.690291 0.643226,0.690291 0.658914,0 1.788482,-0.956995 0.04706,-0.800109 0.266703,-1.9139884 0.658915,-3.498523 1.600221,-5.0673664 0.941306,-1.568843 2.19638,-1.568843 0.737358,0 1.09819,0.439276 0.376525,0.423588 0.376525,1.129567 0,2.2277584 -3.043557,5.9929828 -0.04706,0.61185 -0.04706,1.239389 0,1.302139 0.439276,1.302139 0.266703,0 0.454964,-0.06275 l 0.235327,0.596161 q -0.972683,0.690291 -1.945367,0.690291 -1.411959,0 -1.615909,-1.647287 -1.882612,1.647287 -3.21613,1.647287 -0.80011,0 -1.30214,-0.486341 -0.486341,-0.502031 -0.486341,-1.443337 0,-0.549095 0.360833,-1.772793 Q 2.494463,9.2569446 2.557215,9.0373076 0,7.9861816 0,6.1192576 0,4.8328056 1.192322,3.8601232 q 1.192321,-0.988372 2.651345,-0.988372 2.008121,0 2.008121,1.9924304 z M 2.85529,7.9077366 q 0.549096,-1.91399 0.549096,-2.855297 0,-0.9413044 -0.674604,-0.9413044 -0.658914,0 -1.208009,0.59616 -0.549096,0.5961594 -0.549096,1.3178284 0,0.70598 0.549096,1.192321 0.549095,0.470654 1.333517,0.690292 z m 8.487445,-3.4985214 q 0,-0.423588 -0.313769,-0.423588 -0.69029,0 -1.584532,4.7692854 0.70598,-0.925619 1.30214,-2.21207 0.596161,-1.302141 0.596161,-2.1336274 z"
     style="font-size:19.7556px;font-family:'Noto Sans';-inkscape-font-specification:'Oleo Script Swash Caps';fill:#f0f6fc;fill-opacity:1;stroke-width:0.210113"
     id="path768" /><path
     d="m 11.999743,14.004997 h -0.259759 q 0,-0.642561 0.382803,-2.460874 0.396474,-1.8183134 0.396474,-2.0644004 0,-0.451161 -0.382802,-0.957007 l -0.123044,-0.164059 0.01367,-0.177728 q 0.738263,-0.205074 2.365174,-0.205074 0.177729,0.232417 0.191401,0.847635 1.189423,-0.915993 2.009713,-0.915993 0.492176,0 0.779277,0.341788 0.300775,0.341788 0.300775,0.861307 0,0.505845 -0.314445,1.7636274 -0.314446,1.257779 -0.314446,1.695268 0,0.423818 0.109374,0.423818 0.08203,0 0.574203,-0.25976 l 0.164058,-0.08203 0.246088,0.478503 q -0.123044,0.109372 -0.328117,0.27343 -0.205073,0.164059 -0.765606,0.45116 -0.546861,0.273432 -0.984349,0.273432 -0.998021,0 -0.998021,-1.134736 0,-0.478504 0.300773,-1.763626 0.314445,-1.2851244 0.314445,-1.6542554 0,-0.369131 -0.232416,-0.369131 -0.396474,0 -0.970679,0.341787 -0.04101,0.232417 -0.273429,1.2304374 -0.478505,2.146429 -0.478505,3.035078 -0.478502,0.191402 -1.722611,0.191402 z"
     style="font-size:19.7556px;font-family:'Noto Sans';-inkscape-font-specification:'Oleo Script Swash Caps';fill:#f0f6fc;fill-opacity:1;stroke-width:0.1831"
     id="path770" /><path
     d="m 21.405744,8.7551316 q 0,0.574204 -0.36913,1.9823704 -0.369132,1.394496 -0.369132,1.831985 0,0.423818 0.123044,0.423818 0.08204,0 0.628889,-0.25976 l 0.164059,-0.08203 0.232416,0.478503 q -0.123044,0.109372 -0.328116,0.27343 -0.205074,0.164059 -0.765606,0.45116 -0.560532,0.273432 -1.039036,0.273432 -0.478502,0 -0.751934,-0.287102 -0.27343,-0.300775 -0.27343,-0.792948 0,-0.505847 0.341788,-1.777299 0.341787,-1.2851224 0.341787,-1.6679254 0,-0.574205 -0.355459,-1.080051 l -0.123044,-0.164064 0.01368,-0.177728 q 0.724593,-0.205073 2.351502,-0.205073 0.177731,0.205073 0.177731,0.779277 z m -1.558553,-2.269473 q -0.273431,-0.27343 -0.273431,-0.72459 0,-0.451161 0.369131,-0.79295 0.382802,-0.3417864 0.874977,-0.3417864 0.492175,0 0.765606,0.2734294 0.273431,0.273431 0.273431,0.724591 0,0.437488 -0.396475,0.779278 -0.382803,0.341788 -0.861307,0.341788 -0.478503,0 -0.751932,-0.25976 z"
     style="font-size:19.7556px;font-family:'Noto Sans';-inkscape-font-specification:'Oleo Script Swash Caps';fill:#f0f6fc;fill-opacity:1;stroke-width:0.1831"
     id="path772" /><path
     d="m 25.438833,8.5910726 q -0.54686,0 -0.874978,0.915994 -0.328116,0.9023194 -0.328116,1.9413544 0,1.640583 1.011693,1.640583 0.328117,0 0.697247,-0.150386 0.369132,-0.164058 0.587875,-0.314446 l 0.205074,-0.164059 0.314445,0.42382 q -0.109372,0.150385 -0.437487,0.396472 -0.328118,0.246089 -0.61522,0.410147 -0.287103,0.164057 -0.738262,0.300774 -0.45116,0.136714 -0.88865,0.136714 -1.066378,0 -1.599568,-0.697247 -0.533189,-0.697248 -0.533189,-1.872999 0,-1.6269114 0.88865,-2.6386044 0.902319,-1.011693 2.310486,-1.011693 0.915993,0 1.449182,0.423817 0.546862,0.410147 0.546862,1.025364 0,0.601548 -0.382804,1.0390374 -0.341787,0 -0.792948,-0.150387 -0.45116,-0.150387 -0.683576,-0.3691314 l 0.205073,-1.203094 q -0.123044,-0.08203 -0.341789,-0.08203 z"
     style="font-size:19.7556px;font-family:'Noto Sans';-inkscape-font-specification:'Oleo Script Swash Caps';fill:#f0f6fc;fill-opacity:1;stroke-width:0.1831"
     id="path774" /><path
     d="m 29.635981,14.12804 q -0.943335,0 -1.476522,-0.656233 -0.533191,-0.669904 -0.533191,-1.859327 0,-1.517539 0.80662,-2.6112604 0.820292,-1.093723 2.255803,-1.093723 l 0.492173,0.02734 q 0.232417,-0.123044 0.519519,-0.123044 1.08005,0 1.08005,2.037056 0.560532,-0.02734 1.134738,-0.150385 l 0.218743,-0.05468 0.08204,0.5331894 q -0.451161,0.1914 -1.216767,0.341787 l -0.27343,0.05469 q -0.259759,1.435511 -1.052707,2.50189 -0.792949,1.052706 -2.037059,1.052706 z m 0.738264,-1.17575 q 0.574205,0 1.025364,-0.738263 0.464832,-0.738262 0.642563,-1.558554 -1.462854,0 -1.462854,-1.0937214 0,-0.437489 0.17773,-0.820291 l 0.06835,-0.136716 q -0.05469,-0.02734 -0.136715,-0.02734 -0.08204,0 -0.123045,0.02734 -0.341788,0.218745 -0.642561,1.025365 -0.300774,0.8066184 -0.300774,1.8456554 0,1.476525 0.751936,1.476525 z"
     style="font-size:19.7556px;font-family:'Noto Sans';-inkscape-font-specification:'Oleo Script Swash Caps';fill:#f0f6fc;fill-opacity:1;stroke-width:0.1831"
     id="path776" /><path
     d="m 33.395658,14.004997 h -0.0957 q -0.02734,-0.109372 -0.02734,-0.492175 0,-0.396473 0.36913,-2.105414 0.369131,-1.7089414 0.369131,-1.9550284 0,-0.423818 -0.382802,-0.929664 l -0.12304,-0.164059 0.01367,-0.177728 q 0.738261,-0.205074 2.365172,-0.205074 0.16406,0.355459 0.16406,0.998022 0.150385,-0.246088 0.628889,-0.656235 0.478503,-0.410145 0.984349,-0.410145 0.738263,0 0.738263,1.285124 -0.06835,0.08203 -0.191403,0.218744 -0.109371,0.123045 -0.46483,0.35546 -0.341788,0.232416 -0.669905,0.2871024 -0.01367,0 -0.232417,-0.3691324 -0.218742,-0.369131 -0.328114,-0.369131 -0.34179,0.123045 -0.601549,0.410146 -0.62889,2.8300044 -0.62889,3.6639674 0,0.300775 0.01367,0.423817 -0.478502,0.191403 -1.900342,0.191403 z"
     style="font-size:19.7556px;font-family:'Noto Sans';-inkscape-font-specification:'Oleo Script Swash Caps';fill:#f0f6fc;fill-opacity:1;stroke-width:0.1831"
     id="path778" /><path
     d="M 38.467799,14.004997 H 38.20804 q 0,-0.642561 0.382803,-2.460874 0.396474,-1.8183134 0.396474,-2.0644004 0,-0.451161 -0.382803,-0.957007 l -0.123042,-0.164059 0.01367,-0.177728 q 0.738262,-0.205074 2.365172,-0.205074 0.177731,0.232417 0.191402,0.847635 1.189425,-0.915993 2.009715,-0.915993 0.492174,0 0.779277,0.341788 0.300774,0.341788 0.300774,0.861307 0,0.505845 -0.314446,1.7636274 -0.314445,1.257779 -0.314445,1.695268 0,0.423818 0.109372,0.423818 0.08203,0 0.574204,-0.25976 l 0.16406,-0.08203 0.246086,0.478503 q -0.123043,0.109372 -0.328117,0.27343 -0.205072,0.164059 -0.765605,0.45116 -0.546862,0.273432 -0.984349,0.273432 -0.998021,0 -0.998021,-1.134736 0,-0.478504 0.300772,-1.763626 0.314445,-1.2851244 0.314445,-1.6542554 0,-0.369131 -0.232416,-0.369131 -0.396473,0 -0.970677,0.341787 -0.04101,0.232417 -0.273431,1.2304374 -0.478504,2.146429 -0.478504,3.035078 -0.478504,0.191402 -1.722611,0.191403 z"
     style="font-size:19.7556px;font-family:'Noto Sans';-inkscape-font-specification:'Oleo Script Swash Caps';fill:#f0f6fc;fill-opacity:1;stroke-width:0.1831"
     id="path780" /></svg>
