<?xml version="1.0" encoding="UTF-8" standalone="no"?>
<!-- Created with Inkscape (http://www.inkscape.org/) -->

<svg
   width="234"
   height="55"
   viewBox="0 0 61.912505 14.552086"
   version="1.1"
   id="svg5"
   xml:space="preserve"
   xmlns="http://www.w3.org/2000/svg"
   xmlns:svg="http://www.w3.org/2000/svg"><defs
     id="defs2" /><path
     style="-inkscape-font-specification:'Oleo Script Swash Caps';fill:#f0f6fc;fill-opacity:1;stroke-width:0.179651"
     d="m 5.0034218,5.3224596 q 0,0.8987379 -0.6572859,3.0718059 -0.657286,2.1596535 -0.657286,2.7632835 0,0.590216 0.549974,0.590216 0.5633879,0 1.5291959,-0.818254 0.040242,-0.684114 0.228038,-1.6365076 0.563388,-2.9913219 1.368228,-4.3327218 0.8048399,-1.3414 1.8779599,-1.3414 0.630458,0 0.9389803,0.375592 0.321936,0.362178 0.321936,0.965808 0,1.9047879 -2.6023163,5.1241474 -0.040242,0.523146 -0.040242,1.059706 0,1.113362 0.375592,1.113362 0.228038,0 0.389006,-0.05366 l 0.20121,0.509732 q -0.831668,0.590216 -1.6633359,0.590216 -1.20726,0 -1.381642,-1.40847 -1.6096799,1.40847 -2.7498699,1.40847 -0.684114,0 -1.113362,-0.415834 -0.4158339,-0.429248 -0.4158339,-1.234088 0,-0.46949 0.3085219,-1.515782 Q 2.1328259,9.0783794 2.1864819,8.8905835 0,7.9918455 0,6.3955795 0,5.2956316 1.019464,4.4639636 q 1.0194639,-0.845082 2.2669659,-0.845082 1.7169919,0 1.7169919,1.703578 z M 2.4413479,7.9247755 q 0.46949,-1.636508 0.46949,-2.4413479 0,-0.80484 -0.576802,-0.80484 -0.563388,0 -1.0328779,0.509732 -0.46949003,0.509732 -0.46949003,1.1267759 0,0.60363 0.46949003,1.019464 0.4694899,0.40242 1.1401899,0.590216 z M 9.6983217,4.9334536 q 0,-0.362178 -0.26828,-0.362178 -0.590216,0 -1.354814,4.0778559 0.60363,-0.791426 1.113362,-1.891374 0.509732,-1.1133619 0.509732,-1.8243039 z m 0.8584933,8.2496094 h -0.254866 q 0,-0.630458 0.375592,-2.41452 0.389006,-1.7840616 0.389006,-2.0255135 0,-0.442662 -0.375592,-0.93898 l -0.120726,-0.160968 0.01341,-0.174382 q 0.724356,-0.20121 2.320622,-0.20121 0.174382,0.228038 0.187796,0.831668 1.167018,-0.898738 1.971858,-0.898738 0.482904,0 0.764598,0.33535 0.295108,0.33535 0.295108,0.845082 0,0.496318 -0.308522,1.7304055 -0.308522,1.234088 -0.308522,1.663336 0,0.415834 0.107312,0.415834 0.08048,0 0.563388,-0.254866 l 0.160968,-0.08048 0.241452,0.46949 q -0.120726,0.107312 -0.321936,0.26828 -0.20121,0.160968 -0.751184,0.442662 -0.53656,0.26828 -0.965808,0.26828 -0.979222,0 -0.979222,-1.113362 0,-0.46949 0.295108,-1.730406 0.308522,-1.2609156 0.308522,-1.6230935 0,-0.362178 -0.228038,-0.362178 -0.389006,0 -0.952394,0.33535 -0.04024,0.2280379 -0.26828,1.2072595 -0.46949,2.105998 -0.46949,2.977908 -0.46949,0.187796 -1.690164,0.187796 z m 9.228824,-5.1509755 q 0,0.563388 -0.362178,1.9450299 -0.362178,1.3682276 -0.362178,1.7974756 0,0.415834 0.120726,0.415834 0.08048,0 0.617044,-0.254866 l 0.160968,-0.08048 0.228038,0.46949 q -0.120726,0.107312 -0.321936,0.26828 -0.20121,0.160968 -0.751184,0.442662 -0.549974,0.26828 -1.019464,0.26828 -0.46949,0 -0.73777,-0.281694 -0.26828,-0.295108 -0.26828,-0.778012 0,-0.496318 0.33535,-1.74382 0.33535,-1.2609156 0.33535,-1.6365075 0,-0.563388 -0.348764,-1.059706 l -0.120726,-0.160968 0.01341,-0.174382 q 0.710942,-0.20121 2.307208,-0.20121 0.174382,0.20121 0.174382,0.764598 z M 18.256443,5.8053636 q -0.26828,-0.26828 -0.26828,-0.710942 0,-0.442662 0.362178,-0.778012 0.375592,-0.33535 0.858496,-0.33535 0.482904,0 0.751184,0.26828 0.26828,0.26828 0.26828,0.710942 0,0.429248 -0.389006,0.764598 -0.375592,0.3353499 -0.845082,0.3353499 -0.46949,0 -0.73777,-0.2548659 z m 5.486317,2.0657559 q -0.53656,0 -0.858496,0.898738 -0.321936,0.8853239 -0.321936,1.9047875 0,1.60968 0.992636,1.60968 0.321936,0 0.684114,-0.147554 0.362178,-0.160968 0.576802,-0.308522 l 0.20121,-0.160968 0.308522,0.415834 q -0.107312,0.147554 -0.429248,0.389006 -0.321936,0.241452 -0.60363,0.40242 -0.281694,0.160968 -0.724356,0.295108 -0.442662,0.13414 -0.87191,0.13414 -1.046292,0 -1.569438,-0.684114 -0.523146,-0.684114 -0.523146,-1.837718 0,-1.5962656 0.87191,-2.5889015 0.885324,-0.992636 2.266966,-0.992636 0.898738,0 1.421884,0.415834 0.53656,0.40242 0.53656,1.00605 0,0.5902159 -0.375592,1.0194639 -0.33535,0 -0.778012,-0.147554 -0.442662,-0.147554 -0.6707,-0.362178 l 0.20121,-1.1804319 q -0.120726,-0.080484 -0.33535,-0.080484 z m 4.11809,5.4326695 q -0.925566,0 -1.448712,-0.643872 -0.523146,-0.657286 -0.523146,-1.824304 0,-1.4889536 0.791426,-2.5620735 0.80484,-1.07312 2.21331,-1.07312 l 0.482904,0.026828 q 0.228038,-0.120726 0.509732,-0.120726 1.059706,0 1.059706,1.9986859 0.549974,-0.026828 1.113362,-0.1475539 l 0.214624,-0.053656 0.08048,0.5231459 q -0.442662,0.187796 -1.193846,0.33535 l -0.26828,0.053656 q -0.254866,1.4084696 -1.032878,2.4547616 -0.778012,1.032878 -1.998686,1.032878 z m 0.724356,-1.153604 q 0.563388,0 1.00605,-0.724356 0.456076,-0.724356 0.630458,-1.5291956 -1.435298,0 -1.435298,-1.0731199 0,-0.429248 0.174382,-0.80484 l 0.06707,-0.13414 q -0.05366,-0.026828 -0.13414,-0.026828 -0.08048,0 -0.120726,0.026828 -0.33535,0.214624 -0.630458,1.00605 -0.295108,0.7914259 -0.295108,1.8108895 0,1.448712 0.73777,1.448712 z m 2.964449,1.032878 h -0.0939 q -0.02683,-0.107312 -0.02683,-0.482904 0,-0.389006 0.362178,-2.065756 0.362178,-1.6767495 0.362178,-1.9182015 0,-0.415834 -0.375592,-0.912152 l -0.120726,-0.160968 0.01341,-0.174382 q 0.724356,-0.20121 2.320622,-0.20121 0.160968,0.348764 0.160968,0.979222 0.147554,-0.241452 0.617044,-0.643872 0.46949,-0.40242 0.965808,-0.40242 0.724356,0 0.724356,1.260916 -0.06707,0.080484 -0.187796,0.214624 -0.107312,0.120726 -0.456076,0.3487639 -0.33535,0.228038 -0.657286,0.281694 -0.01341,0 -0.228038,-0.3621779 -0.214624,-0.362178 -0.321936,-0.362178 -0.33535,0.120726 -0.590216,0.4024199 -0.617044,2.7766976 -0.617044,3.5949516 0,0.295108 0.01341,0.415834 -0.46949,0.187796 -1.864546,0.187796 z m 4.976573,0 h -0.254866 q 0,-0.630458 0.375592,-2.41452 0.389006,-1.7840616 0.389006,-2.0255135 0,-0.442662 -0.375592,-0.93898 l -0.120726,-0.160968 0.01341,-0.174382 q 0.724356,-0.20121 2.320622,-0.20121 0.174382,0.228038 0.187796,0.831668 1.167018,-0.898738 1.971858,-0.898738 0.482904,0 0.764598,0.33535 0.295108,0.33535 0.295108,0.845082 0,0.496318 -0.308522,1.7304055 -0.308522,1.234088 -0.308522,1.663336 0,0.415834 0.107312,0.415834 0.08048,0 0.563388,-0.254866 l 0.160968,-0.08048 0.241452,0.46949 q -0.120726,0.107312 -0.321936,0.26828 -0.20121,0.160968 -0.751184,0.442662 -0.53656,0.26828 -0.965808,0.26828 -0.979222,0 -0.979222,-1.113362 0,-0.46949 0.295108,-1.730406 0.308522,-1.2609156 0.308522,-1.6230935 0,-0.362178 -0.228038,-0.362178 -0.389006,0 -0.952394,0.33535 -0.04024,0.2280379 -0.26828,1.2072595 -0.46949,2.105998 -0.46949,2.977908 -0.46949,0.187796 -1.690164,0.187796 z"
     id="text2-5-9"
     aria-label="Unicorn" /><path
     id="path8-7"
     style="fill:#f0f6fc;fill-opacity:1;stroke:none;stroke-width:0.203405px;stroke-linecap:butt;stroke-linejoin:miter;stroke-opacity:1"
     d="m 49.442536,2.2972335 c 0.273688,0.1118671 1.095009,0.4797508 1.359658,1.0327939 4.793449,0.3319407 5.395122,5.729413 6.262296,7.5548556 0.190988,0.402865 0.340347,0.942334 0.909958,1.151175 0.421046,0.123074 1.073484,0.211957 1.073484,0.211957 0.275641,0.04582 0.516615,-0.02891 0.415914,-0.08793 0,0 -0.821404,-0.47402 -0.969944,-1.065187 -1.04e-4,-4.19e-4 1.06e-4,-0.0011 0,-0.0015 -0.05475,-0.319928 -0.144455,-0.479003 -0.2367,-0.650829 0.115259,0.143396 0.260558,0.323924 0.260558,0.323924 0.0585,0.08124 0.214298,0.248899 0.211995,0.148821 0,0 -0.03428,-0.543625 -0.09794,-0.9293692 -2.52e-4,-0.0015 -0.199606,-0.9339171 -0.456251,-1.0873254 0,0 -0.28789,-0.1486174 -0.434259,-0.2214159 0.804165,-0.022331 1.420196,-0.4860738 1.420196,-0.4860731 0.07234,-0.056825 0.267294,-0.2003236 0.175711,-0.2090134 0,0 -0.529717,0.00244 -0.868666,-0.1123011 -0.33813,-0.1145006 -0.700473,-0.3181573 -0.844285,-0.6485841 -0.01045,-0.039728 -0.122558,-0.4474374 -0.4898,-0.9490342 -0.217769,-0.2974397 -0.557734,-0.6171688 -0.9837,-0.9199589 0.341163,0.06461 0.607707,0.0566 0.812978,0.014165 0.205271,-0.042435 0.349145,-0.1185154 0.44097,-0.1871229 0.09182,-0.068607 0.138291,-0.136801 0.138291,-0.136801 0.05128,-0.076047 0.18535,-0.2491097 0.09567,-0.2298432 0,0 -0.896385,0.170072 -1.201565,-0.091911 -0.564576,-0.5327389 -0.846837,-0.5508802 -1.432943,-0.6194524 0.08061,-0.02724 0.08138,-0.019922 0.177432,-0.059268 0.311935,-0.1277813 0.676514,-0.3151588 0.88902,-0.5930529 0.05408,-0.07254 0.149554,-0.2018002 0.05993,-0.1892578 0,0 -0.774096,0.2010559 -1.110933,0.1038912 C 54.697758,3.2599455 54.383452,3.1179796 53.90939,2.9010054 53.430429,2.6817889 52.973138,2.4150572 52.450055,2.4205243 c -0.524162,0.030888 -0.85599,0.2128481 -1.275194,0.3451711 0.128719,-0.1122593 0.224253,-0.2179999 0.367908,-0.3213148 0.264696,-0.1903638 0.497255,-0.3351065 0.497255,-0.3351065 0.08476,-0.05462 0.312805,-0.1951668 0.211988,-0.1966565 -0.948985,0.017292 -1.91411,0.034368 -2.809476,0.3846159 z m -0.65256,0.465107 c -0.01437,0.017615 -0.0302,0.035086 -0.04398,0.052558 -0.160974,0.2039568 -0.18902,0.3573726 -0.18902,0.3573726 0.224002,0.1454535 0.63357,0.7205326 0.678715,0.6374679 C 48.8932,3.4170966 48.845037,3.0120568 48.789981,2.7623402 Z" /><path
     id="path11-9"
     style="fill:#f0f6fc;fill-opacity:1;stroke:none;stroke-width:0.203405px;stroke-linecap:butt;stroke-linejoin:miter;stroke-opacity:1"
     d="m 48.91783,2.2509209 c 0,0 -0.151888,0.4330421 0.465248,1.5013654 0,0 0.197693,-0.1028226 0.502142,-0.1935094 C 49.778331,3.3915561 49.560365,3.209595 49.427759,3.0601717 49.28517,2.8995125 49.246599,2.720592 49.246599,2.720592 c 0,0 0.457748,0.1831673 0.89834,0.7576699 0,0 0.195058,-0.077152 0.428254,-0.1030627 C 50.163496,2.6128525 48.91783,2.2509209 48.91783,2.2509209 Z" /><path
     id="path6-3"
     style="fill:#f0f6fc;fill-opacity:1;stroke:none;stroke-width:0.203405px;stroke-linecap:butt;stroke-linejoin:miter;stroke-opacity:1"
     d="m 45.330437,5.9980623e-4 c -0.01639,0.001679004 -0.03213,0.007300004 -0.04584,0.0164012038 -0.04279,0.0281578 -0.05795,0.0837303 -0.03542,0.12971879 0.0036,0.007461 0.01041,0.0137265 0.01417,0.0212468 0.05578,0.11184232 0.118947,0.23171026 0.186004,0.35560817 0.0032,2.4002e-4 0.0053,4.9813e-4 0.0086,7.4006e-4 0.02963,0.002192 0.06971,0.004465 0.117045,0.005591 0.077,0.00184 0.173342,-8.8948e-4 0.273229,-0.0160281 -0.263526,-0.2884788 -0.429817,-0.47861724 -0.429817,-0.47861724 -0.02184,-0.0253111 -0.05473,-0.0382714 -0.08797,-0.0346666038 z m 0.705252,0.71643487377 -0.06933,0.0145373 c -0.143257,0.0305399 -0.278647,0.0357478 -0.383191,0.03392 0.06045,0.10762308 0.123996,0.21831998 0.189732,0.33100642 l 0.05815,0.019384 c 0,0 0.268889,0.087905 0.524465,-0.05815 C 46.240858,0.93682636 46.133274,0.82239616 46.035691,0.71703472 Z m 0.480109,0.50769202 -0.04212,0.024975 c -0.200289,0.1164741 -0.405055,0.1258245 -0.543477,0.112572 0.07097,0.1188517 0.146201,0.2405908 0.220298,0.3615722 l 0.0059,7.4e-4 c 0,0 0.461583,0.038532 0.761164,-0.088342 C 46.778036,1.4953846 46.642153,1.356464 46.515734,1.2247221 Z m 0.576652,0.587089 -0.04138,0.019757 c -0.256668,0.1245326 -0.565584,0.140372 -0.751847,0.1360556 0.08237,0.1325921 0.1658,0.2641749 0.249001,0.3954929 0.07091,0.00872 0.61144,0.066107 0.914367,-0.1681124 l 0.01267,-0.010065 C 47.345116,2.0601805 47.216577,1.9352352 47.09245,1.8118157 Z m 0.549813,0.5322939 -0.04026,0.031311 c -0.287034,0.2219346 -0.666707,0.2439343 -0.898336,0.2322262 0.127055,0.1984404 0.250851,0.388948 0.371638,0.5736698 l 0.05219,0.010065 c 0,0 0.657598,0.1212139 1.011284,-0.329888 l 0.02982,-0.038022 C 47.991595,2.6676255 47.815251,2.5069761 47.642263,2.3441096 Z m 0.699288,0.629583 -0.02236,0.028703 c -0.324858,0.414331 -0.826035,0.445441 -1.078381,0.4312774 0.105589,0.160178 0.202373,0.3051758 0.294849,0.4435783 l 0.0973,0.00858 c 0,0 0.232916,0.022441 0.491664,-0.029448 0.258747,-0.051888 0.522166,-0.1703059 0.628463,-0.4409689 l 0.0302,-0.077905 C 48.637087,3.2221482 48.489444,3.1004733 48.341551,2.9736926 Z m 0.629584,0.5080648 -0.0067,0.016774 c -0.144683,0.3684432 -0.499226,0.5209014 -0.795816,0.580379 -0.194832,0.039072 -0.372387,0.041394 -0.47228,0.038394 0.247505,0.3677169 0.383051,0.5360726 0.383051,0.5360726 0.33978,0.035697 1.039716,0.016975 1.156277,-0.8335307 -0.152494,-0.082529 -0.203748,-0.1921594 -0.264494,-0.3380894 z" /><path
     id="path2-6"
     style="fill:#f0f6fc;fill-opacity:1;stroke:none;stroke-width:0.203405px;stroke-linecap:butt;stroke-linejoin:miter;stroke-opacity:1"
     d="m 50.743367,3.5436572 c -0.518213,0 -1.337776,0.4121344 -1.337776,0.4121344 -0.146684,1.0267827 -1.2965,0.8828834 -1.2965,0.8828834 -0.924101,1.7455316 -2.600007,3.0106827 -2.600007,3.0106827 -0.352038,0.6307379 0.146493,1.4082674 0.146493,1.4082674 0,0 0.163071,0.3928176 0.517012,0.3824466 0,0 0.174777,0.022027 0.391765,-0.0466 0.216989,-0.068627 0.46684,-0.220798 0.623991,-0.5986437 0.02151,-0.052399 0.08163,-0.077182 0.133819,-0.055169 0.05163,0.02166 0.07611,0.080926 0.05479,0.1327016 -0.179897,0.4325377 -0.490352,0.6333365 -0.75073,0.7156886 -0.06854,0.02168 -0.134158,0.035158 -0.19383,0.043985 0.229035,0.06289 0.499503,0.05595 0.800304,-0.1051166 0,0 0.79917,-0.8066021 1.385901,-0.8946122 0,0 1.720251,-0.093961 2.435953,-0.6113173 0,0 0.844105,-0.5412374 0.770112,-1.6468316 -0.0037,-0.05609 0.0386,-0.104634 0.09468,-0.1084714 0.05609,-0.00375 0.104636,0.038598 0.108473,0.094679 0.06912,1.0327657 -0.638536,1.6252422 -0.858454,1.7836323 C 52.2581,12.279369 49.01484,14.362123 49.01484,14.362123 h 9.549239 L 57.978008,12.259075 C 56.82445,12.012684 56.512656,9.8689718 55.70924,7.7790028 55.307531,6.7340181 54.687373,5.6587451 53.855367,4.8553657 c -0.832005,-0.8033794 -1.90177,-1.302477 -3.112,-1.3117085 z m -1.330421,2.443044 c 0.02695,-0.00107 0.05322,0.00858 0.07306,0.026841 0.04213,0.037349 0.04597,0.101794 0.0086,0.1438832 -0.311455,0.3464911 -0.622901,0.3875627 -0.838329,0.3168419 -0.215427,-0.070719 -0.338089,-0.2352088 -0.338089,-0.2352088 -0.03407,-0.044418 -0.02591,-0.1080116 0.01826,-0.1423924 0.04467,-0.035093 0.109403,-0.026877 0.143882,0.018264 0,0 0.09169,0.1177894 0.239309,0.1662488 0.147617,0.048459 0.347598,0.045696 0.622874,-0.2605556 0.01804,-0.02023 0.04339,-0.032438 0.07045,-0.033923 z m -3.265705,2.3148076 c 0.118903,6.78e-5 0.215219,0.096551 0.21508,0.2154529 -6.8e-5,0.1187564 -0.09632,0.2150117 -0.21508,0.2150795 -0.118902,1.386e-4 -0.215384,-0.096176 -0.215452,-0.2150795 -1.39e-4,-0.1190483 0.0964,-0.2155915 0.215452,-0.2154529 z" /></svg>
